<svg width="67" height="16" viewBox="0 0 67 16" fill="none" xmlns="http://www.w3.org/2000/svg">
<g clip-path="url(#clip0_1371_14376)">
<path fill-rule="evenodd" clip-rule="evenodd" d="M32.8747 0.302044C32.7061 0.333898 32.4862 0.381129 32.4362 0.568405C32.4159 0.824331 32.4334 1.0819 32.4277 1.33838C32.4277 4.96308 32.4277 8.58834 32.4277 12.213C32.4126 12.33 32.4873 12.4421 32.5992 12.4838C32.8478 12.5837 33.1221 12.5865 33.387 12.598C33.744 12.5991 34.1106 12.6101 34.4581 12.5129C34.597 12.4799 34.7269 12.3657 34.7044 12.2141C34.7033 10.84 34.7083 9.46595 34.7016 8.09186C35.6394 9.5 36.5402 10.9323 37.4708 12.3459C37.617 12.5349 37.8818 12.5491 38.1039 12.5783C38.5363 12.6096 38.9726 12.6112 39.4044 12.5689C39.568 12.5442 39.762 12.5354 39.879 12.4042C39.9965 12.1795 39.8396 11.9324 39.726 11.738C38.8146 10.3562 37.9026 8.97497 36.9872 7.59593C37.7598 6.72326 38.5486 5.86267 39.3263 4.99439C39.4882 4.80382 39.6423 4.56491 39.6068 4.30734C39.5697 4.14698 39.3819 4.09974 39.2408 4.07009C38.8303 3.99924 38.4103 4.01077 37.9954 4.0256C37.7165 4.04867 37.3943 4.06679 37.1947 4.28592C36.3563 5.3651 35.5422 6.46404 34.7016 7.54211C34.7066 5.23603 34.7055 2.92995 34.7016 0.624423C34.6976 0.389916 34.4232 0.328406 34.2332 0.297651C33.7839 0.233944 33.3223 0.232845 32.8736 0.302044H32.8747Z" fill="#9C9C9C"/>
<path fill-rule="evenodd" clip-rule="evenodd" d="M19.1873 1.9835C19.022 2.0137 18.7937 2.07466 18.7723 2.26908C18.756 2.86935 18.7802 3.47072 18.7605 4.07099C18.4254 4.0688 18.0903 4.06056 17.7558 4.07319C17.5837 4.09296 17.5179 4.27694 17.4898 4.41974C17.4313 4.78001 17.4291 5.15127 17.4915 5.51099C17.5252 5.66641 17.6101 5.87346 17.8064 5.86742C18.1229 5.87017 18.44 5.87236 18.7566 5.86412C18.7819 6.99163 18.7605 8.12023 18.7678 9.24828C18.7662 10.0534 18.7262 10.9085 19.1187 11.6444C19.3897 12.1711 19.9357 12.5198 20.5182 12.6368C21.1811 12.7675 21.8806 12.7555 22.5334 12.5759C22.7454 12.5138 22.9978 12.4226 23.0653 12.192C23.1839 11.8103 23.1654 11.3995 23.1232 11.0074C23.0934 10.881 23.0951 10.6844 22.9292 10.6581C22.7128 10.6685 22.5244 10.7998 22.3102 10.8294C21.97 10.8865 21.5505 10.8854 21.3037 10.6125C21.0715 10.3214 21.0422 9.93313 21.0361 9.5778C21.0377 8.34046 21.0304 7.10366 21.04 5.86632C21.6416 5.86852 22.2438 5.87511 22.8449 5.86358C23.0912 5.80152 23.1159 5.50056 23.1395 5.29461C23.1575 4.96509 23.1744 4.62568 23.0816 4.3055C23.0479 4.18688 22.95 4.0666 22.8134 4.07099C22.2208 4.06276 21.6281 4.07099 21.0349 4.06715C21.0327 3.47017 21.0417 2.8732 21.0316 2.27677C21.0085 2.06533 20.7555 2.00656 20.5778 1.97691C20.1173 1.92308 19.6467 1.92089 19.1873 1.9835Z" fill="#9C9C9C"/>
<path fill-rule="evenodd" clip-rule="evenodd" d="M7.8692 6.88563C7.85515 6.20737 7.75281 5.48902 7.33673 4.925C6.93358 4.38129 6.26673 4.09351 5.60774 3.97324C4.29146 3.74038 2.89702 3.87438 1.67577 4.41974C1.44861 4.52903 1.20177 4.64271 1.06233 4.86019C0.92176 5.08811 0.945938 5.36765 0.949312 5.62358C0.970678 5.86028 0.992044 6.14532 1.19952 6.30348C1.38507 6.40399 1.59143 6.28536 1.75955 6.20463C2.47982 5.83831 3.26588 5.53406 4.09129 5.55438C4.54842 5.55163 5.09158 5.60875 5.38058 6.00307C5.6904 6.43914 5.63023 6.99822 5.63642 7.50128C4.80931 7.50019 3.97659 7.48755 3.15848 7.6276C2.37861 7.75666 1.56388 8.02028 1.03253 8.62439C0.562468 9.15217 0.444391 9.89304 0.521984 10.5696C0.584959 11.2089 0.920073 11.8273 1.46098 12.2008C2.18125 12.7038 3.11856 12.817 3.9794 12.7088C4.75646 12.6138 5.44637 12.1909 5.99065 11.6582C5.99177 11.88 5.97884 12.1025 5.99459 12.3249C6.0137 12.5111 6.23018 12.5566 6.38705 12.577C6.76153 12.6083 7.14218 12.6149 7.51553 12.5649C7.67409 12.5418 7.8827 12.4605 7.86864 12.2705C7.87201 10.4757 7.87033 8.68096 7.86864 6.88563H7.8692ZM4.2701 11.1469C3.81241 11.2265 3.26588 11.1666 2.951 10.7959C2.55066 10.3033 2.6828 9.45203 3.28106 9.16425C4.0092 8.80727 4.85036 8.91766 5.63642 8.89624C5.6381 9.34439 5.63642 9.79254 5.63698 10.2407C5.267 10.6405 4.83068 11.0409 4.2701 11.1469Z" fill="#9C9C9C"/>
<path fill-rule="evenodd" clip-rule="evenodd" d="M17.2158 6.46701C17.0257 5.66683 16.6226 4.87324 15.9259 4.38446C15.2012 3.85942 14.2318 3.77485 13.3687 3.94235C12.5096 4.12469 11.8236 4.7008 11.2146 5.28734C11.2113 4.96057 11.2253 4.63269 11.2085 4.30647C11.1803 4.13677 10.9841 4.0824 10.8362 4.05384C10.4477 4.00002 10.0485 3.99892 9.65996 4.05604C9.49408 4.07965 9.28155 4.17027 9.2911 4.36469C9.28773 8.02564 9.28998 11.686 9.28998 15.347C9.2793 15.4695 9.36308 15.5848 9.47778 15.6304C9.74655 15.7397 10.044 15.7441 10.3307 15.7501C10.6636 15.749 11.0066 15.7572 11.326 15.6523C11.462 15.6128 11.5852 15.4931 11.5666 15.3448C11.5717 14.1179 11.5593 12.891 11.5728 11.6641C12.0862 12.1561 12.6979 12.6153 13.4311 12.7147C14.3201 12.8306 15.2821 12.6405 15.9799 12.0672C16.7272 11.4664 17.1078 10.5443 17.2821 9.63643C17.4699 8.59021 17.457 7.5039 17.2158 6.46701ZM14.7609 9.83524C14.5945 10.2235 14.3144 10.5915 13.9096 10.7628C13.4947 10.9292 13.001 10.8749 12.6276 10.6343C12.2127 10.3685 11.8815 10 11.5694 9.6271C11.5644 8.78518 11.5694 7.94271 11.5672 7.10079C11.5543 7.01017 11.6335 6.94866 11.6813 6.88221C12.0164 6.478 12.3926 6.07324 12.8958 5.87168C13.3575 5.6866 13.9433 5.72285 14.3201 6.06555C14.7311 6.42253 14.9043 6.96514 14.9791 7.48193C15.0814 8.26618 15.0769 9.09492 14.7609 9.83524Z" fill="#9C9C9C"/>
<path fill-rule="evenodd" clip-rule="evenodd" d="M31.1945 6.21926C30.9819 5.47345 30.495 4.79355 29.809 4.39483C29.0359 3.92471 28.0918 3.82366 27.2001 3.87968C26.2122 3.94009 25.2248 4.3432 24.5669 5.07968C23.8652 5.86009 23.5616 6.9085 23.4981 7.92781C23.4531 8.78621 23.5099 9.66602 23.8051 10.4816C24.053 11.1697 24.5315 11.7837 25.1787 12.1566C26.003 12.6394 26.9903 12.7575 27.935 12.7459C28.6564 12.736 29.3761 12.6267 30.0705 12.4373C30.3207 12.3615 30.5776 12.2873 30.8003 12.1495C30.9904 12.0133 31.0027 11.7634 31.0162 11.5542C31.0246 11.2895 31.037 11.0209 30.9881 10.7589C30.969 10.6398 30.8762 10.5189 30.7407 10.5316C30.5175 10.5392 30.3184 10.6496 30.1093 10.7122C29.3058 10.9901 28.4444 11.1285 27.5925 11.0506C27.0842 11.0017 26.5608 10.8089 26.2391 10.4047C25.89 9.97358 25.8 9.40461 25.7978 8.86969C27.4272 8.87134 29.0573 8.86969 30.6867 8.86969C30.8565 8.87024 31.0365 8.83784 31.1675 8.72415C31.321 8.59729 31.3823 8.39738 31.3957 8.20791C31.4216 7.54063 31.3918 6.86237 31.1945 6.21871V6.21926ZM29.1961 7.44013H25.7972C25.8248 6.96562 25.9248 6.47629 26.2105 6.08196C26.4714 5.7118 26.9105 5.46906 27.3704 5.44434C27.8562 5.40755 28.3977 5.50915 28.7351 5.87931C29.1208 6.30054 29.2113 6.89423 29.1961 7.44013Z" fill="#9C9C9C"/>
<path fill-rule="evenodd" clip-rule="evenodd" d="M47.3378 6.8847C47.3227 6.20699 47.2209 5.48864 46.8054 4.92516C46.4033 4.38201 45.7382 4.09478 45.0803 3.97395C43.9023 3.76471 42.6642 3.84819 41.5397 4.25844C41.2209 4.38091 40.888 4.50448 40.6322 4.73404C40.3859 4.96361 40.4101 5.32333 40.4179 5.62759C40.4376 5.85331 40.4612 6.11198 40.6361 6.28003C40.8059 6.41404 41.0331 6.3009 41.1995 6.21797C41.9282 5.84617 42.7233 5.53367 43.5599 5.55399C44.0069 5.5529 44.5321 5.60397 44.8284 5.97578C45.1624 6.41129 45.0961 6.9885 45.1039 7.5009C43.8641 7.49925 42.5681 7.47509 41.4104 7.97376C40.8818 8.20662 40.4073 8.59984 40.1767 9.12927C39.9484 9.64661 39.926 10.2326 40.0232 10.7824C40.1261 11.3425 40.4494 11.8659 40.9257 12.1982C41.4244 12.5535 42.0446 12.71 42.6541 12.7402C43.3159 12.7787 43.9985 12.6612 44.5743 12.33C44.9038 12.1521 45.1883 11.9088 45.4582 11.655C45.4593 11.8764 45.4469 12.0993 45.4621 12.3212C45.479 12.5118 45.7016 12.5574 45.8607 12.5771C46.2335 12.6079 46.6125 12.615 46.9847 12.5639C47.1433 12.5409 47.3508 12.4596 47.3373 12.269C47.3406 10.4743 47.3395 8.67948 47.3378 6.8847ZM43.8129 11.1305C43.3974 11.2173 42.9167 11.1986 42.5681 10.9361C42.1604 10.6357 42.1048 10.0431 42.3016 9.61037C42.4984 9.20726 42.9622 9.03041 43.3867 8.95957C43.9541 8.8662 44.5315 8.9041 45.1039 8.89641C45.105 9.34346 45.1028 9.79105 45.105 10.2392C44.7519 10.6231 44.3404 11.0026 43.8129 11.1305Z" fill="#9C9C9C"/>
<path fill-rule="evenodd" clip-rule="evenodd" d="M60.0528 3.77702C60.4481 3.76439 60.8495 3.75231 61.2392 3.8281C61.3966 3.85611 61.5912 3.95442 61.5743 4.1395C61.5799 5.7135 61.567 7.2875 61.5811 8.8615C61.5906 9.32667 61.6699 9.82753 61.9943 10.19C62.3817 10.62 63.0818 10.676 63.5766 10.3965C64.0309 10.1406 64.398 9.76108 64.727 9.36676C64.7556 7.60823 64.7247 5.84475 64.7433 4.08458C64.7624 3.89071 64.9912 3.83853 65.1549 3.81107C65.6204 3.75066 66.0978 3.75121 66.565 3.80833C66.75 3.8314 67.0137 3.91268 67.0008 4.1395C67.0008 6.75752 67.0019 9.37554 67.0002 11.993C67.0154 12.1693 66.8377 12.272 66.6826 12.2984C66.2749 12.3736 65.8521 12.3703 65.4422 12.3138C65.2847 12.2885 65.0756 12.2253 65.061 12.0424C65.048 11.7431 65.0587 11.4427 65.0587 11.1434C65.048 11.1407 65.0261 11.1352 65.0149 11.1324C64.3801 11.7915 63.5754 12.3665 62.6325 12.4774C61.9409 12.5439 61.201 12.4648 60.6021 12.0963C60.1501 11.8283 59.8144 11.4004 59.6142 10.927C59.3826 10.3789 59.328 9.77811 59.31 9.19101C59.3022 7.52585 59.3095 5.86068 59.3061 4.19551C59.2988 4.08952 59.3173 3.96595 59.4219 3.90828C59.6114 3.80064 59.8391 3.79515 60.0528 3.77702Z" fill="#9C9C9C"/>
<path fill-rule="evenodd" clip-rule="evenodd" d="M56.4905 4.02094C56.9527 3.76062 57.5245 3.76337 58.0272 3.90176C58.1672 3.9424 58.3421 3.99458 58.3837 4.15275C58.4579 4.41636 58.4416 4.69316 58.4489 4.96446C58.4421 5.29343 58.4624 5.63613 58.3494 5.95137C58.2915 6.10789 58.0896 6.10459 57.958 6.05187C57.5948 5.92446 57.1798 5.81242 56.8099 5.97938C56.3145 6.2062 55.9811 6.65269 55.6786 7.07997C55.6207 7.17223 55.5256 7.25791 55.5442 7.37654C55.5447 8.97031 55.5447 10.5641 55.5442 12.1584C55.5656 12.2968 55.4565 12.4094 55.3288 12.4473C55.0522 12.5346 54.7559 12.5373 54.4686 12.5439C54.1419 12.5406 53.8079 12.5445 53.493 12.45C53.3603 12.4138 53.2473 12.2973 53.2681 12.1557C53.2687 9.53818 53.2659 6.92015 53.2698 4.30268C53.2597 4.12693 53.4447 4.03851 53.5954 4.0105C53.976 3.94021 54.3702 3.9479 54.7548 3.98414C54.9285 4.00446 55.1613 4.05334 55.2046 4.24995C55.2214 4.59101 55.2063 4.93316 55.2113 5.27476C55.5813 4.80849 55.9575 4.32025 56.4899 4.02094H56.4905Z" fill="#9C9C9C"/>
<path fill-rule="evenodd" clip-rule="evenodd" d="M49.9782 9.92285C50.4376 9.85475 50.9341 9.83827 51.3682 10.0239C51.7292 10.1815 51.8113 10.6066 51.8382 10.952C51.8551 11.3595 51.863 11.7951 51.6718 12.1685C51.4975 12.486 51.0972 12.5694 50.7598 12.5952C50.3527 12.6139 49.9108 12.6172 49.5509 12.4058C49.2507 12.2064 49.1939 11.8203 49.1697 11.4941C49.1556 11.1014 49.1545 10.6857 49.3328 10.3249C49.4525 10.0843 49.7235 9.97008 49.9782 9.92285Z" fill="#9C9C9C"/>
</g>
<defs>
<clipPath id="clip0_1371_14376">
<rect width="66.5" height="15.5" fill="white" transform="translate(0.5 0.25)"/>
</clipPath>
</defs>
</svg>
