<svg width="84" height="13" viewBox="0 0 84 13" fill="none" xmlns="http://www.w3.org/2000/svg">
<g clip-path="url(#clip0_1371_14401)">
<path d="M81.8816 1.48383C81.0939 0.674661 79.8167 0.674661 79.0287 1.48383L78.0253 2.51482L77.0215 1.48383C76.2338 0.674661 74.9566 0.674661 74.1689 1.48383C73.3812 2.293 73.3812 3.60517 74.1689 4.41434L75.1723 5.44532L78.0253 8.37584L81.8816 4.41434C82.6693 3.60517 82.6693 2.29378 81.8816 1.48383Z" fill="#9C9C9C"/>
<path d="M6.86887 6.2744C6.86887 7.81933 5.5109 8.59879 3.5941 8.59879C1.21121 8.59958 0.266117 7.45065 0 5.90493H1.93049C2.07723 6.79381 2.59578 7.10855 3.55456 7.10855C4.52626 7.10855 4.93912 6.75316 4.93912 6.13771C4.93912 5.68624 4.72622 5.33089 3.87389 5.33089H2.649V3.82657H3.67394C4.47227 3.82657 4.71255 3.56648 4.71255 3.08847C4.71255 2.56907 4.3932 2.19963 3.46104 2.19963C2.80868 2.19963 2.22322 2.39099 2.07647 3.17048H0.146745C0.386251 1.84426 1.26444 0.75 3.48765 0.75C5.32461 0.75 6.62936 1.51543 6.62936 2.95179C6.62936 3.71722 6.25678 4.18273 5.7238 4.4561C6.44307 4.7568 6.86887 5.39961 6.86887 6.2744Z" fill="#9C9C9C"/>
<path d="M16.5745 6.58918V10.3359H14.6706V8.43481H9.17263V10.3359H7.26953V6.58918H8.57424C8.82743 6.37048 8.9871 5.93312 9.1065 5.1669L9.77178 0.914062H15.2432V6.58918H16.5745ZM13.3393 6.58918V2.76047H11.3958L10.9967 5.26295C10.9031 5.87844 10.7701 6.28847 10.5838 6.58918H13.3393Z" fill="#9C9C9C"/>
<path d="M24.9131 4.67479C24.9131 6.98593 23.4753 8.59958 21.5714 8.59958C20.5328 8.59958 19.774 8.13486 19.2554 7.42333V11.8542H17.3516V0.914021H19.2554V1.96688C19.7618 1.24207 20.5473 0.75 21.5722 0.75C23.4487 0.75 24.9131 2.34959 24.9131 4.67479ZM22.9833 4.67479C22.9833 3.44385 22.1979 2.60969 21.1327 2.60969C20.0675 2.60969 19.2554 3.44385 19.2554 4.67479C19.2554 5.91901 20.0675 6.73991 21.1327 6.73991C22.1842 6.73912 22.9833 5.91901 22.9833 4.67479Z" fill="#9C9C9C"/>
<path d="M33.1736 0.914021L33.1599 8.43478H31.256V7.42333C30.7504 8.13407 29.9916 8.59958 28.9667 8.59958C27.0499 8.59958 25.625 6.98593 25.625 4.67479C25.6258 2.34959 27.0765 0.75 28.9537 0.75C29.9924 0.75 30.7641 1.24207 31.2697 1.96688V0.914021H33.1736ZM31.2697 4.67479C31.2697 3.44385 30.4577 2.60969 29.3924 2.60969C28.3272 2.60969 27.5418 3.44385 27.5418 4.67479C27.5418 5.91901 28.3401 6.73991 29.3924 6.73991C30.4577 6.73912 31.2697 5.91901 31.2697 4.67479Z" fill="#9C9C9C"/>
<path d="M40.6305 6.26115C40.6305 7.80608 39.4725 8.4356 37.9676 8.4356H34.0938V0.914062H37.6346C39.099 0.914062 40.2571 1.31084 40.2571 2.81515C40.2571 3.59464 39.8577 4.00469 39.3121 4.37413C40.1643 4.63344 40.6305 5.3036 40.6305 6.26115ZM37.4757 2.44571H35.9984V3.89534H37.4757C38.1281 3.89534 38.3411 3.64931 38.3411 3.18458C38.3411 2.69174 38.1281 2.44571 37.4757 2.44571ZM38.7004 6.08306C38.7004 5.54962 38.461 5.29031 37.8217 5.29031H35.9976V6.90396H37.8217C38.487 6.90396 38.7004 6.62982 38.7004 6.08306Z" fill="#9C9C9C"/>
<path d="M41.1875 4.67479C41.1875 2.44567 42.798 0.75 45.0076 0.75C46.7911 0.75 48.3756 1.85753 48.6547 3.77189H46.6979C46.4711 2.95179 45.7792 2.55501 45.0068 2.55501C43.8488 2.55501 43.1027 3.43057 43.1164 4.67479C43.1027 5.93305 43.8755 6.79456 44.9938 6.79456C45.7792 6.79456 46.4711 6.38452 46.6979 5.56362H48.6547C48.3622 7.54674 46.751 8.59958 44.9938 8.59958C42.798 8.59958 41.1875 6.90393 41.1875 4.67479Z" fill="#9C9C9C"/>
<path d="M56.4237 0.914062V8.43481H54.5199V5.76832L54.6398 3.53918L51.6185 8.43481H49.4219V0.914062H51.3256V3.58058L51.2321 5.78235L54.2408 0.914062H56.4237Z" fill="#9C9C9C"/>
<path d="M63.6118 2.76047H61.3491V8.4356H59.4454V2.76047H57.1953V0.914062H61.3483H63.611V2.76047H63.6118Z" fill="#9C9C9C"/>
<path d="M71.3572 0.914062V8.43481H69.4535V5.76832L69.5738 3.53918L66.5521 8.43481H64.3555V0.914062H66.2592V3.58058L66.1661 5.78235L69.1744 0.914062H71.3572Z" fill="#9C9C9C"/>
<path d="M75.1727 5.44632L74.1689 4.41532C73.3812 3.60615 73.3812 2.29398 74.1689 1.48481C74.9566 0.675637 76.2341 0.675637 77.0218 1.48481L78.0253 2.5158L75.1727 5.44632Z" fill="#9C9C9C"/>
</g>
<defs>
<clipPath id="clip0_1371_14401">
<rect width="84" height="11.5" fill="white" transform="translate(0 0.75)"/>
</clipPath>
</defs>
</svg>
