<svg width="51" height="12" viewBox="0 0 51 12" fill="none" xmlns="http://www.w3.org/2000/svg">
<path d="M6.3826 8.90925C7.6885 8.74367 8.74343 7.68874 8.91006 6.38179C8.96823 5.93571 8.92315 5.48223 8.77829 5.05634C8.63343 4.63045 8.39266 4.24353 8.07457 3.92543C7.75647 3.60734 7.36955 3.36657 6.94366 3.22171C6.51777 3.07685 6.06429 3.03177 5.61821 3.08994C4.31126 3.25657 3.25633 4.3115 3.09075 5.6174C3.03258 6.06348 3.07766 6.51696 3.22252 6.94285C3.36738 7.36874 3.60815 7.75566 3.92624 8.07376C4.24433 8.39185 4.63126 8.63262 5.05715 8.77748C5.48304 8.92234 5.93652 8.96742 6.3826 8.90925ZM6.56067 0.528118C7.81795 0.660473 8.99168 1.22043 9.88562 2.11438C10.7796 3.00832 11.3395 4.18205 11.4719 5.43933C11.8166 8.91758 8.91735 11.8168 5.43805 11.4721C4.18096 11.3395 3.00747 10.7795 2.11374 9.88555C1.22001 8.99163 0.660198 7.81802 0.527884 6.56091C0.183183 3.08265 3.08242 0.183417 6.56067 0.528118ZM14.4232 0.745769H22.4742C22.7804 0.745769 22.9532 1.09568 22.7689 1.33936L17.1985 8.68847H21.563C22.3586 8.68847 22.9845 9.41224 22.8199 10.237C22.6991 10.8421 22.1316 11.2545 21.5151 11.2545H12.7715C12.4685 11.2545 12.2967 10.9077 12.4789 10.6671L18.0535 3.31176H14.4711C13.8546 3.31176 13.287 2.89833 13.1662 2.29432C13.0006 1.46954 13.6276 0.745769 14.4232 0.745769ZM49.363 0.774928C50.194 0.599974 50.925 1.22898 50.925 2.02876V10.8837C50.925 11.193 50.5679 11.3649 50.3262 11.1732L43.3812 5.66323V9.97355C43.3812 10.7733 42.6501 11.4023 41.8191 11.2274C41.2234 11.1024 40.8152 10.5474 40.8152 9.93919V1.11546C40.8152 0.80617 41.1724 0.63434 41.414 0.825956L48.3601 6.33597V2.06313C48.3601 1.45496 48.7694 0.900936 49.364 0.774928H49.363ZM31.2792 0.5C35.5312 0.5 38.9782 2.96185 38.9782 5.99855C38.9782 9.03526 35.5312 11.4971 31.2792 11.4971C27.0272 11.4971 23.5802 9.03526 23.5802 5.99855C23.5802 2.96185 27.0272 0.5 31.2792 0.5ZM31.2792 3.06599C28.3414 3.06599 26.1461 4.61454 26.1461 5.99855C26.1461 7.38257 28.3414 8.93112 31.2792 8.93112C34.2169 8.93112 36.4122 7.38361 36.4122 5.99855C36.4122 4.6135 34.2169 3.06599 31.2792 3.06599Z" fill="#9C9C9C"/>
</svg>
