<svg width="96" height="12" viewBox="0 0 96 12" fill="none" xmlns="http://www.w3.org/2000/svg">
<path d="M3.79636 11.2867L0.925781 0.677246H2.82657L5.03769 8.82348L7.40398 0.677246H9.169L11.5353 8.86227L13.7464 0.677246H15.6278L12.7572 11.2867H10.5655L8.25739 3.37326L5.96869 11.2867H3.79636Z" fill="#9C9C9C"/>
<path d="M16.9453 0.677246H18.7491V11.2867H16.9453V0.677246Z" fill="#9C9C9C"/>
<path d="M22.5697 9.61836H26.9338V11.2864H20.8047V0.696289H22.5697V9.61836Z" fill="#9C9C9C"/>
<path d="M32.4822 0.696706C33.8593 0.657915 35.1976 1.22039 36.148 2.22898C38.107 4.34312 38.107 7.6404 36.148 9.75455C35.1976 10.7631 33.8593 11.3256 32.4822 11.2868H28.2539V0.696706H32.4822ZM32.4822 9.61877C33.4908 9.61877 34.3248 9.26965 34.9455 8.5908C35.6049 7.89255 35.954 6.94215 35.9152 5.99176C35.954 5.02197 35.6049 4.09097 34.9455 3.39272C34.3054 2.71387 33.4132 2.32595 32.4822 2.36475H30.0189V9.61877H32.4822Z" fill="#9C9C9C"/>
<path d="M47.0899 8.26102C47.1093 9.07564 46.7602 9.87087 46.1589 10.414C45.5383 10.9958 44.7237 11.3062 43.8702 11.2868H39.2734V0.696659H43.5405C44.3551 0.677263 45.1504 0.987597 45.771 1.53068C46.3723 2.05437 46.702 2.8302 46.6826 3.62543C46.7214 4.47884 46.2947 5.29347 45.5965 5.77836C46.5275 6.24386 47.1093 7.21365 47.0899 8.26102ZM41.0385 2.32591V5.1189H43.5405C44.3163 5.1189 44.937 4.49824 44.937 3.7224C44.937 2.94657 44.3163 2.32591 43.5405 2.32591H41.0385ZM43.8702 9.63812C44.6849 9.59933 45.3249 8.92048 45.2861 8.10586C45.2667 7.33003 44.6267 6.70936 43.8702 6.68996H41.0385V9.65752L43.8702 9.63812Z" fill="#9C9C9C"/>
<path d="M50.5385 9.61836H55.2904V11.2864H48.7734V0.696289H55.2128V2.36433H50.5385V5.11853H54.8443V6.76718H50.5385V9.61836Z" fill="#9C9C9C"/>
<path d="M62.9924 11.2865L60.7037 7.42674H58.6283V11.2865H56.8633V0.676998H61.1692C62.0808 0.657603 62.973 1.02612 63.613 1.68558C64.2725 2.30624 64.641 3.17905 64.6216 4.09066C64.6022 5.44836 63.7682 6.6703 62.4881 7.15519L64.9319 11.2865H62.9924ZM58.6283 2.32564V5.87507H61.1498C62.1195 5.83628 62.876 5.00226 62.8372 4.01308C62.7984 3.10147 62.0614 2.36443 61.1498 2.32564H58.6283Z" fill="#9C9C9C"/>
<path d="M72.3987 11.2865L70.1294 7.42674H68.0541V11.2865H66.2891V0.676998H70.5949C71.5065 0.657603 72.3987 1.02612 73.0388 1.68558C73.6983 2.30624 74.0668 3.17905 74.0474 4.09066C74.028 5.44836 73.194 6.6703 71.9138 7.15519L74.3577 11.2865H72.3987ZM68.0541 2.32564V5.87507H70.5755C71.5647 5.81689 72.3018 4.98286 72.2436 3.99368C72.1854 3.10147 71.4677 2.36443 70.5755 2.32564H68.0541Z" fill="#9C9C9C"/>
<path d="M75.6406 0.677246H77.4056V11.2867H75.6406V0.677246Z" fill="#9C9C9C"/>
<path d="M81.2416 9.61836H85.9936V11.2864H79.4766V0.696289H85.916V2.36433H81.2416V5.11853H85.5474V6.76718H81.2416V9.61836Z" fill="#9C9C9C"/>
<path d="M87.2383 8.88157L88.7706 8.00876C89.1973 9.2113 90.0895 9.79317 91.4278 9.79317C92.7661 9.79317 93.4255 9.23069 93.4255 8.39667C93.4449 8.00876 93.2316 7.62084 92.8825 7.42688C92.5333 7.19413 91.8933 6.94199 90.9817 6.67044C89.9537 6.36011 89.4494 6.16615 88.7318 5.70065C88.0141 5.23515 87.6844 4.51751 87.6844 3.56712C87.6456 2.7137 88.0335 1.87968 88.693 1.3366C89.3718 0.774121 90.2446 0.483183 91.1368 0.502579C92.7467 0.444392 94.2208 1.37539 94.8802 2.83008L93.4061 3.66409C92.96 2.6943 92.2036 2.19002 91.1562 2.19002C90.1089 2.19002 89.4688 2.6943 89.4688 3.50893C89.4688 4.32355 89.9925 4.65328 91.6411 5.15757C92.0484 5.29334 92.3394 5.39032 92.5333 5.46791C92.7273 5.54549 92.9988 5.64247 93.3286 5.77824C93.6001 5.87522 93.8716 6.03038 94.1044 6.20495C94.6669 6.65105 95.2875 7.36869 95.21 8.37727C95.2487 9.26948 94.8608 10.1035 94.1626 10.666C93.4643 11.2285 92.5527 11.5 91.4084 11.5C89.2942 11.4806 87.7814 10.4914 87.2383 8.88157Z" fill="#9C9C9C"/>
</svg>
