<svg width="85" height="16" viewBox="0 0 85 16" fill="none" xmlns="http://www.w3.org/2000/svg">
<g clip-path="url(#clip0_1371_14430)">
<path d="M39.7625 13.5002H41.4125L43.7125 4.9502V13.5002H45.5625V2.2002H43.0125L40.7125 10.5002L38.4125 2.2002H35.8125V13.5002H37.4125V4.9502L39.7625 13.5002ZM53.3125 7.9002C53.3125 5.9002 52.3125 5.1502 50.2625 5.1502C48.9625 5.1502 47.9625 5.5502 47.3625 5.9002V7.5002C47.8625 7.1002 49.0125 6.7002 50.0125 6.7002C50.9625 6.7002 51.3625 7.0502 51.3625 7.9002V8.3502H51.0625C48.1125 8.3502 46.7625 9.3502 46.7625 11.0002C46.7625 12.6502 47.7625 13.6002 49.2625 13.6002C50.4125 13.6002 50.9125 13.2502 51.2625 12.8502H51.3625C51.3625 13.0502 51.4625 13.3502 51.5125 13.5002H53.4125C53.3625 12.8502 53.3125 12.1502 53.3125 11.5002V7.9002ZM51.3625 11.5502C51.1125 11.9002 50.6625 12.2002 49.9625 12.2002C49.1625 12.2002 48.7625 11.7002 48.7625 11.0002C48.7625 10.0502 49.4125 9.7002 51.1125 9.7002H51.4125V11.5502H51.3625ZM56.6625 5.3002H54.8625V15.8502H56.8125V12.5502C57.3125 13.3002 58.0125 13.6502 58.8625 13.6502C60.7625 13.6502 62.0625 12.1502 62.0625 9.4002C62.0625 6.6502 60.8125 5.1502 58.9625 5.1502C58.0625 5.1502 57.3125 5.55019 56.7625 6.35019L56.6625 5.3002ZM58.3125 12.1502C57.3125 12.1502 56.7625 11.3002 56.7625 9.4502C56.7625 7.5502 57.3125 6.7002 58.4125 6.7002C59.4625 6.7002 60.0125 7.5502 60.0125 9.4002C60.0125 11.3002 59.4625 12.1502 58.3125 12.1502ZM68.1125 13.5002H70.3125L67.2125 9.1002L69.9625 5.3002H68.0125L65.2625 9.1002V5.3002H63.3125V13.5002H65.2625V9.5002L68.1125 13.5002ZM76.8125 12.9502V11.3502C76.2125 11.7502 75.2125 12.1002 74.2625 12.1002C72.8625 12.1002 72.3125 11.4502 72.2125 10.0502H76.8625V9.0002C76.8625 6.1502 75.6125 5.1002 73.6625 5.1002C71.3125 5.1002 70.1625 6.9002 70.1625 9.4002C70.1625 12.2502 71.5625 13.6502 74.0125 13.6502C75.3625 13.6502 76.2625 13.3502 76.8125 12.9502ZM73.6625 6.7002C74.6125 6.7002 74.9125 7.5002 74.9125 8.5002V8.6502H72.2125C72.2625 7.35019 72.7625 6.7002 73.6625 6.7002ZM83.8125 6.85019V5.3002H77.3125V6.85019H79.6125V13.5002H81.5625V6.85019H83.8125Z" fill="#9C9C9C"/>
<path d="M24.2662 15.5C28.4162 15.5 31.7662 12.15 31.7662 8C31.7662 3.85 28.4162 0.5 24.2662 0.5C20.1162 0.5 16.7662 3.85 16.7662 8C16.7162 12.15 20.1162 15.5 24.2662 15.5Z" fill="#9C9C9C"/>
<path d="M8.21484 15.5C12.357 15.5 15.7148 12.1421 15.7148 8C15.7148 3.85786 12.357 0.5 8.21484 0.5C4.07271 0.5 0.714844 3.85786 0.714844 8C0.714844 12.1421 4.07271 15.5 8.21484 15.5Z" fill="#9C9C9C"/>
<path d="M9.31719 4.7H8.56719C7.26719 4.7 6.61719 5.35 6.61719 6.35C6.61719 7.45 7.06719 8 8.01719 8.65L8.76719 9.2L6.61719 12.55H4.86719L6.91719 9.5C5.71719 8.65 5.06719 7.85 5.06719 6.45C5.06719 4.7 6.26719 3.5 8.56719 3.5H10.8672V12.5H9.36719V4.7H9.31719Z" fill="white"/>
<mask id="mask0_1371_14430" style="mask-type:luminance" maskUnits="userSpaceOnUse" x="16" y="0" width="16" height="16">
<path d="M24.2623 15.5C28.4123 15.5 31.7623 12.15 31.7623 8C31.7623 3.85 28.4123 0.5 24.2623 0.5C20.1123 0.5 16.7623 3.85 16.7623 8C16.7123 12.15 20.1123 15.5 24.2623 15.5Z" fill="white"/>
</mask>
<g mask="url(#mask0_1371_14430)">
<path d="M20.5609 4.5998L13.9609 13.2498L15.7109 15.2498L20.6109 8.7498L20.1109 12.2998L22.8609 13.2498L26.2109 7.89981C26.0609 8.89981 25.8109 11.1998 28.0109 11.8998C31.4609 12.9498 34.4609 6.7498 35.8609 3.5998L33.8609 2.5498C32.3109 5.7998 29.9109 9.3998 28.9609 9.1498C28.0109 8.8998 28.8609 5.8498 29.4109 3.8998V3.8498L26.3609 2.7998L22.7109 8.7498L23.2109 5.4998L20.5609 4.5998Z" fill="black"/>
</g>
</g>
<defs>
<clipPath id="clip0_1371_14430">
<rect width="83.5" height="16" fill="white" transform="translate(0.714844)"/>
</clipPath>
</defs>
</svg>
