<svg width="84" height="26" viewBox="0 0 84 26" fill="none" xmlns="http://www.w3.org/2000/svg">
<g clip-path="url(#clip0_1371_14387)">
<mask id="mask0_1371_14387" style="mask-type:luminance" maskUnits="userSpaceOnUse" x="0" y="5" width="84" height="16">
<path d="M84 5.57129H0.5V20.8044H84V5.57129Z" fill="white"/>
</mask>
<g mask="url(#mask0_1371_14387)">
<path d="M13.9232 10.3834H14.2115C15.1863 10.3834 15.9781 11.1622 15.9781 12.121V14.2547C15.9781 15.2135 15.1863 15.9923 14.2115 15.9923H11.8957C11.3466 15.9923 11.0857 16.2669 11.0857 16.789V19.0668C11.0857 20.0256 10.2939 20.8044 9.31911 20.8044H7.14981C6.17498 20.8044 5.38324 20.0256 5.38324 19.0668C5.38324 19.0668 5.38324 17.3608 5.38324 16.789C5.38324 16.2219 5.09948 15.9923 4.56859 15.9923H2.26657C1.29175 15.9878 0.5 15.209 0.5 14.2502V12.1165C0.5 11.1577 1.29175 10.3789 2.26657 10.3789H4.57775C5.09033 10.3789 5.39239 10.0953 5.39239 9.56865V7.30888C5.39239 6.35004 6.18413 5.57129 7.15896 5.57129H9.32826C10.3031 5.57129 11.0948 6.35004 11.0948 7.30888V9.57311C11.0948 10.1268 11.3007 10.3834 11.8911 10.3834H12.2985L11.1086 11.9814C10.1978 11.9094 9.47012 11.1577 9.47012 10.2439V7.97508C9.47012 7.42142 9.25504 7.16931 8.65092 7.16931H7.82715C7.31454 7.16931 7.01706 7.43944 7.01706 7.97508V10.2439C7.01706 11.2027 6.22532 11.9814 5.25049 11.9814H2.9439C2.34894 11.9814 2.12469 12.3641 2.12469 12.7917V13.593C2.12469 14.0746 2.42217 14.3942 2.93475 14.3942H5.25049C6.22532 14.3942 7.01706 15.173 7.01706 16.1318V18.4051C7.01706 18.9182 7.27794 19.2063 7.818 19.2063H8.64634C9.1589 19.2063 9.46554 18.9002 9.46554 18.3961V16.1318C9.46554 15.173 10.2573 14.3942 11.2321 14.3942H13.5479C14.1062 14.3942 14.3579 14.1152 14.3579 13.584V12.7827C14.3579 12.2335 14.065 11.9814 13.5296 11.9814H12.7332L13.9232 10.3834Z" fill="#9C9C9C"/>
<path d="M34.2059 8.77832L37.8927 17.5975H36.1901L35.3326 15.5059H31.2232L30.3782 17.5975H28.7539L32.3875 8.77832H34.2059ZM31.7991 14.0581H34.7442L33.2732 10.4417L31.7991 14.0581Z" fill="#9C9C9C"/>
<path d="M45.5323 10.2292H40.7594V17.5975H39.1602V8.77832H47.1347V17.5975H45.5354V10.2292H45.5323Z" fill="#9C9C9C"/>
<path d="M56.0661 10.229H53.0459V17.5973H51.4467V10.229H48.4766V8.78125H56.0661V10.229Z" fill="#9C9C9C"/>
<path d="M63.1311 13.7809H59.0094V16.1497H63.7444V17.5975H57.4102V8.77832H63.6038V10.2261H59.0094V12.33H63.1311V13.7809Z" fill="#9C9C9C"/>
<path d="M27.4008 13.7809H23.279V16.1497H28.0142V17.5975H21.6797V8.77832H27.8734V10.2261H23.279V12.33H27.4008V13.7809Z" fill="#9C9C9C"/>
<path d="M67.2477 17.5975H65.6484V8.77832H67.2477V12.481H68.5908L71.4698 8.77832H73.4168L69.9989 12.9738L73.9673 17.5975H71.9204L68.6686 13.7809H67.2477V17.5975Z" fill="#9C9C9C"/>
<path d="M79.577 8.77832L83.2638 17.5975H81.5612L80.7036 15.5059H76.5946L75.7492 17.5975H74.125L77.7589 8.77832H79.577ZM77.1701 14.0581H80.1153L78.6444 10.4417L77.1701 14.0581Z" fill="#9C9C9C"/>
</g>
</g>
<defs>
<clipPath id="clip0_1371_14387">
<rect width="83.5" height="26" fill="white" transform="translate(0.5)"/>
</clipPath>
</defs>
</svg>
