<svg width="69" height="69" viewBox="0 0 69 69" fill="none" xmlns="http://www.w3.org/2000/svg">
<circle cx="34.5" cy="34.5" r="34.5" fill="#2E8647"/>
<path d="M55.0923 32.4123C54.6094 27.6476 52.4894 23.1978 49.0935 19.821C45.6975 16.4443 41.2359 14.3496 36.4687 13.8938C31.7015 13.438 26.9238 14.6494 22.9497 17.3215C18.9755 19.9937 16.0508 23.9612 14.6739 28.5481C13.2969 33.135 13.553 38.0574 15.3985 42.4767C17.2439 46.8959 20.5645 50.5386 24.7945 52.7838C29.0245 55.0291 33.9021 55.7382 38.5963 54.7902C43.2904 53.8421 47.5106 51.2957 50.5378 47.5848C52.2584 45.4802 53.5464 43.0565 54.328 40.4528C55.1096 37.8491 55.3693 35.1167 55.0923 32.4123ZM50.4209 24.9279C51.6117 26.9135 52.4212 29.104 52.8075 31.3868C52.4984 33.5209 49.697 34.5691 47.0352 35.4702C46.6138 33.3402 46.7212 31.1393 47.3481 29.0604C47.8716 27.373 48.9557 25.915 50.4209 24.9279ZM46.2396 20.1055C47.3917 21.0417 48.426 22.114 49.32 23.2991C47.4888 24.5251 46.1328 26.3415 45.478 28.4458C45.3951 28.6984 45.3235 28.9586 45.2594 29.2187C45.106 29.029 44.9397 28.8501 44.7617 28.6833C44.8063 28.6261 44.8396 28.5608 44.8597 28.491C44.9804 28.114 44.9841 27.4278 44.4563 27.1299C43.9284 26.832 43.8493 27.3863 43.7739 27.6389C43.6984 27.8915 43.5853 27.6728 43.5891 27.5333C43.618 27.1694 43.5435 26.8048 43.3742 26.4814C43.3382 26.3973 43.2816 26.3237 43.2096 26.2674C43.1375 26.211 43.0524 26.1738 42.9622 26.1591C42.8719 26.1445 42.7794 26.1528 42.6933 26.1835C42.6071 26.2141 42.5301 26.266 42.4693 26.3343C42.3828 26.5705 42.3828 26.8296 42.4693 27.0658C42.5221 27.2242 42.4128 27.3222 42.3411 27.2656C42.2695 27.2091 42.1111 27.0733 42.0018 26.9753C41.8925 26.8773 41.474 26.5078 41.0555 26.783C40.8769 26.9175 40.7496 27.1089 40.6948 27.3256C40.6399 27.5423 40.6607 27.7713 40.7538 27.9745C40.9738 28.2459 41.2649 28.4509 41.5946 28.5665C41.7982 28.6343 41.6926 28.8115 41.5946 28.853C41.4456 28.989 41.3461 29.1708 41.3118 29.3696C41.3462 29.5217 41.4358 29.6557 41.5632 29.7455C41.6907 29.8354 41.847 29.8747 42.0018 29.856C42.409 29.822 42.7559 29.3432 42.8803 29.215C43.0047 29.0868 43.1103 29.2753 43.016 29.411C42.9072 29.5979 42.8199 29.7965 42.7559 30.003C42.6918 30.1878 42.7785 30.5912 43.2913 30.7194C43.6683 30.8174 44.0114 30.546 44.2376 30.1274C44.26 29.9752 44.2457 29.8198 44.1959 29.6741C44.146 29.5285 44.0621 29.397 43.9511 29.2904C43.5119 28.8295 43.0254 28.4162 42.4995 28.0574C43.3026 28.37 44.0273 28.8553 44.6222 29.4789C44.9992 30.0143 44.9766 30.4932 44.9125 31.2887C44.7673 32.9005 44.8562 34.5249 45.1764 36.1112L43.8719 36.575L42.4919 37.0651C42.6314 35.5569 41.8736 33.7961 41.0517 31.9222C40.1958 29.9653 39.257 27.8199 39.5436 25.8102C39.7558 23.9161 40.5607 22.1373 41.8435 20.7276C42.6028 19.9272 43.5141 19.2862 44.5241 18.8424C45.1193 19.2308 45.692 19.6525 46.2396 20.1055ZM32.6175 16.0145C33.5782 15.9165 34.5451 15.8938 35.5093 15.9466C35.581 19.5738 34.2387 21.4779 32.659 23.3858C32.6074 22.7128 32.481 22.0475 32.2819 21.4025C32.054 20.7538 31.7767 20.1236 31.4525 19.5173C31.8477 19.9526 32.1779 20.4428 32.4328 20.9727C32.4499 21.0402 32.4828 21.1027 32.5288 21.1551C32.5748 21.2074 32.6325 21.2481 32.6972 21.2739C32.762 21.2996 32.8319 21.3097 32.9013 21.3032C32.9706 21.2967 33.0375 21.2739 33.0963 21.2366C33.4507 21.0745 33.9296 20.6334 33.7033 20.1281C33.4771 19.6229 33.0322 19.9245 32.7985 20.0376C32.5647 20.1507 32.6175 19.9434 32.7193 19.8604C32.9762 19.6589 33.1634 19.382 33.2547 19.0686C33.3716 18.6199 32.855 18.3748 32.6175 18.4314C32.3966 18.5122 32.2147 18.6739 32.1085 18.8838C32.0406 19.0158 31.8861 19.012 31.8672 18.9329C31.8484 18.8537 31.8107 18.6727 31.788 18.5558C31.7599 18.3958 31.6808 18.2492 31.5626 18.1378C31.4444 18.0264 31.2934 17.9561 31.132 17.9375C30.6042 17.8545 30.1291 18.1561 30.0801 18.4314C30.0877 18.7431 30.1918 19.0447 30.3779 19.2948C30.4986 19.4607 30.2912 19.506 30.197 19.4871C30.0835 19.4845 29.9722 19.5186 29.8796 19.5842C29.787 19.6498 29.7181 19.7436 29.6829 19.8515C29.6478 19.9594 29.6484 20.0758 29.6846 20.1833C29.7208 20.2909 29.7908 20.3839 29.884 20.4486C30.1253 20.6937 30.8077 20.4901 31.0151 20.4938C31.2225 20.4976 31.1584 20.6711 30.9887 20.7012C30.7753 20.7457 30.5669 20.8114 30.3666 20.8973C30.1894 20.9765 29.9896 21.2743 30.3138 21.6514C30.5627 21.9455 31.1508 21.8738 31.6221 21.7494C31.7239 21.7193 31.8861 22.217 31.9162 22.4733C32.0512 23.2243 31.9374 23.9988 31.592 24.6791C31.3054 25.0297 31.0189 25.3879 30.7361 25.7688C30.4934 24.6683 30.0485 23.6225 29.424 22.6845C28.2411 20.9136 26.524 19.5663 24.5226 18.8386H24.4962C26.9455 17.2755 29.7269 16.3083 32.6175 16.0145ZM20.1038 22.7524C20.8146 21.8771 21.6033 21.0682 22.4603 20.3355C22.9226 20.4223 23.3767 20.5484 23.8176 20.7125C25.4232 21.296 26.8008 22.3764 27.75 23.7968C28.658 25.1203 29.0594 26.7263 28.8811 28.3214C28.826 28.7885 28.7172 29.2478 28.5569 29.6901V29.7278C27.7502 31.7919 27.3891 34.0033 27.4974 36.2168C27.5314 36.652 27.5969 37.0843 27.6935 37.51C26.8791 37.1971 26.0232 36.8955 25.1485 36.5863L23.8477 36.1263C24.3919 33.5827 24.2817 30.9427 23.5273 28.4533C23.2531 27.6118 22.873 26.8085 22.3962 26.0629C22.3927 25.8722 22.4277 25.6829 22.4989 25.506C22.5702 25.3292 22.6763 25.1685 22.8109 25.0335C23.2516 24.5551 23.7976 24.1859 24.4058 23.9551C23.996 24.2772 23.6173 24.637 23.2747 25.0297C23.0937 25.2258 23.0409 25.501 23.1201 25.6029C23.3614 25.9083 23.7196 26.225 24.0589 26.1307C24.5113 26.0025 24.5453 25.6896 24.4736 25.5538C24.3886 25.4015 24.2874 25.2586 24.172 25.1278C24.074 25.0335 24.1381 24.8827 24.2738 24.9732C24.4735 25.1593 24.7296 25.2734 25.0015 25.2974C25.1309 25.3068 25.2588 25.2644 25.357 25.1796C25.4553 25.0948 25.5159 24.9744 25.5255 24.845C25.4916 24.7051 25.4034 24.5843 25.2805 24.5094C25.2051 24.483 25.0957 24.3548 25.2805 24.2907C25.5556 24.1908 25.7982 24.0173 25.9817 23.7892C26.0431 23.6207 26.0383 23.4352 25.9684 23.2701C25.8984 23.105 25.7685 22.9725 25.6047 22.8994C25.4605 22.8484 25.3046 22.8406 25.1559 22.8767C25.0073 22.9129 24.8724 22.9915 24.7677 23.103C24.6772 23.186 24.549 23.2991 24.4887 23.3443C24.4284 23.3896 24.319 23.3255 24.353 23.2011C24.3792 23.1083 24.3858 23.011 24.3721 22.9155C24.3585 22.8201 24.325 22.7285 24.2738 22.6468C24.2125 22.5983 24.1413 22.5639 24.0652 22.5459C23.9892 22.5279 23.9101 22.5268 23.8336 22.5426C23.7571 22.5584 23.6849 22.5908 23.6222 22.6374C23.5595 22.6841 23.5078 22.7439 23.4707 22.8127C23.3503 23.0649 23.3159 23.3497 23.3727 23.6233C23.3915 23.7289 23.3124 23.9024 23.2181 23.7176C23.1238 23.5329 23.0032 23.1143 22.5545 23.3707C22.1059 23.6271 22.2303 24.2794 22.3698 24.5547C22.3974 24.6075 22.4344 24.6548 22.4791 24.6942C22.2868 24.8853 22.1137 25.0949 21.9626 25.3201V25.4106C21.3315 24.5876 20.5669 23.8764 19.7004 23.3066C19.8211 23.1143 19.9568 22.9333 20.1038 22.7524ZM18.5693 24.9279C20.0373 25.9188 21.1217 27.3825 21.6421 29.0755C21.7137 29.2942 21.7741 29.5166 21.8306 29.7391C21.6243 29.6353 21.4099 29.5483 21.1897 29.4789C21.2146 29.4128 21.2249 29.342 21.2198 29.2715C21.2198 28.8945 21.0049 28.3101 20.4658 28.2874C19.9266 28.2648 20.0133 28.7663 20.0209 29.0151C20.0284 29.264 19.8663 29.1283 19.8286 29.0151C19.7444 28.7 19.5654 28.4183 19.3158 28.2083C19.2464 28.1576 19.166 28.1239 19.0812 28.1101C18.9963 28.0963 18.9094 28.1027 18.8275 28.1288C18.7456 28.1549 18.671 28.1999 18.6098 28.2602C18.5485 28.3205 18.5024 28.3945 18.4751 28.476C18.4712 28.6976 18.5475 28.9132 18.69 29.083C18.7842 29.1961 18.7201 29.3243 18.6372 29.3092C18.5542 29.2942 18.377 29.2451 18.2601 29.2074C18.1056 29.144 17.9344 29.1336 17.7734 29.1779C17.6123 29.2223 17.4706 29.3189 17.3703 29.4525C17.251 29.6259 17.1955 29.8353 17.2133 30.0451C17.2312 30.2548 17.3214 30.4519 17.4684 30.6025C17.753 30.7396 18.0721 30.7882 18.3846 30.742C18.5844 30.7119 18.5467 30.9117 18.4901 30.9796C18.4045 31.1522 18.3755 31.3475 18.4072 31.5376C18.4562 31.7035 18.8144 31.8581 19.1612 31.6545C19.5081 31.4509 19.6552 30.9004 19.7343 30.7269C19.8135 30.5535 19.9568 30.6817 19.9153 30.8363C19.8619 31.0359 19.8303 31.2407 19.8211 31.4471C19.8211 31.6356 20.0171 31.941 20.5072 31.8242C20.6948 31.7548 20.8572 31.6308 20.9735 31.4681C21.0898 31.3054 21.1546 31.1116 21.1595 30.9117C21.1821 30.7609 20.922 30.4027 20.6392 30.3386C20.1068 30.1348 19.5527 29.9931 18.9878 29.9163C19.7666 29.83 20.5548 29.9295 21.2877 30.2066C21.8005 30.4894 22.0418 30.9871 22.1247 31.7148H22.1473C22.243 32.975 22.1759 34.2423 21.9475 35.4853C19.2894 34.5691 16.4843 33.5209 16.1789 31.3792C16.5663 29.0985 17.3771 26.9104 18.5693 24.9279ZM28.1157 51.951C24.8402 50.7509 21.9683 48.6535 19.8282 45.8985C17.688 43.1435 16.366 39.8421 16.013 36.3714C15.964 35.8887 15.9339 35.4023 15.9225 34.916C17.4307 36.1979 19.6438 36.9407 21.71 37.6382L22.9165 38.0492C22.6282 38.3522 22.3659 38.6789 22.1323 39.0258C21.6195 39.7799 21.397 40.8356 21.2048 41.7255C21.1903 41.0532 21.2806 40.3828 21.4724 39.7384C21.4986 39.6703 21.5093 39.5972 21.5038 39.5244C21.4983 39.4516 21.4768 39.381 21.4407 39.3175C21.4047 39.2541 21.355 39.1994 21.2953 39.1574C21.2356 39.1154 21.1673 39.0872 21.0954 39.0748C20.6354 38.9768 20.2961 38.9768 20.0548 39.3425C19.7306 39.8327 19.9379 40.1607 20.1114 40.2323C20.2559 40.3075 20.4132 40.3548 20.5751 40.3718C20.741 40.3718 20.7938 40.5868 20.5977 40.6094C20.2534 40.5975 19.9151 40.7011 19.6363 40.9035C19.2894 41.2014 19.2819 41.6576 19.4139 41.7669C19.5799 41.8751 19.7795 41.9193 19.9756 41.8914C20.0699 41.8574 20.2735 41.8914 20.1566 42.095C20.0998 42.1828 20.0632 42.2821 20.0495 42.3858C20.0358 42.4895 20.0453 42.5949 20.0774 42.6945C20.1451 42.9035 20.2918 43.0777 20.4863 43.1799C20.6808 43.2821 20.9075 43.3041 21.118 43.2412C21.6006 43.0112 21.5592 42.6718 21.6233 42.3664C21.6459 42.2722 21.7967 42.2533 21.8608 42.3966C21.9068 42.5063 21.9751 42.6052 22.0615 42.687C22.1478 42.7688 22.2502 42.8317 22.3622 42.8717C22.4577 42.8656 22.5508 42.8391 22.6352 42.7939C22.7195 42.7486 22.7932 42.6858 22.8511 42.6097C22.909 42.5335 22.9499 42.4457 22.9709 42.3524C22.992 42.259 22.9927 42.1622 22.973 42.0686C22.8953 41.7283 22.707 41.4233 22.4377 41.2014C22.3434 41.1146 22.2868 40.8809 22.5168 40.9864C22.7468 41.092 23.1766 41.3974 23.3991 40.7866C23.6215 40.1758 23.022 39.6555 22.645 39.4896C22.6262 39.4896 22.5998 39.4405 22.5696 39.3764C22.8337 38.9311 23.2178 38.5691 23.6781 38.332L24.4095 38.5922C26.9092 39.4669 29.1827 40.27 30.755 41.4841C30.6146 41.6699 30.4526 41.8383 30.2724 41.9856C29.737 42.34 26.9432 44.8964 26.3965 45.3791C26.6189 44.8286 27.4635 43.95 28.029 43.2789C28.3269 42.9282 28.4061 42.5625 28.2402 42.4079C27.7387 41.9253 27.0035 41.4691 26.4568 41.7292C25.7254 42.0761 25.7706 42.6304 25.9478 42.8604C26.1427 43.0995 26.364 43.3158 26.6076 43.5051C26.8074 43.6446 26.7471 43.9274 26.4832 43.8068C26.2193 43.6861 25.5029 43.1846 24.8695 43.2827C24.2361 43.3807 23.9307 43.9161 24.025 44.1574C24.1672 44.4144 24.3916 44.6162 24.6621 44.7305C24.8016 44.7569 25.0392 44.953 24.7602 45.1076C24.4023 45.3295 24.1279 45.6636 23.9797 46.0577C23.8364 46.48 24.1984 47.2982 24.9562 47.5018C25.1692 47.5832 25.4053 47.5796 25.6158 47.4919C25.8263 47.4042 25.9951 47.2391 26.0873 47.0305C26.2117 46.8684 26.3927 46.6535 26.4643 46.5366C26.536 46.4197 26.7547 46.5366 26.7433 46.7515C26.7335 46.9233 26.7577 47.0954 26.8147 47.2579C26.8716 47.4203 26.9601 47.5698 27.0751 47.6979C27.1924 47.7665 27.3237 47.8077 27.4591 47.8187C27.5945 47.8296 27.7307 47.8099 27.8574 47.761C27.9842 47.7121 28.0983 47.6352 28.1913 47.5362C28.2844 47.4372 28.3539 47.3185 28.3947 47.1889C28.5109 46.7058 28.4686 46.1982 28.2741 45.741C28.2062 45.5638 28.2741 45.2395 28.5079 45.5412C28.7416 45.8428 29.0885 46.5328 29.7671 45.9597C30.4458 45.3866 30.0801 44.2856 29.6012 43.7653C29.9318 43.4215 30.3492 43.1737 30.8093 43.0483C31.2693 42.9228 31.7548 42.9243 32.2141 43.0527C32.7185 43.8931 32.9747 44.8591 32.9531 45.8391C32.9531 50.4089 28.5833 51.819 28.1157 51.951ZM34.4951 42.6605C33.7222 40.8582 32.2631 39.6517 30.3779 38.6751C29.8765 38.1887 29.5485 37.2687 29.4504 36.0358C29.3749 34.6997 29.5163 33.3602 29.8689 32.0692C30.4043 30.8662 31.364 29.9025 32.5647 29.362L32.6401 29.3243C33.462 28.9473 34.0389 28.6796 34.9626 28.7437C34.5215 28.7437 33.6166 29.1207 32.8136 29.5883C32.6362 29.6785 32.4991 29.8319 32.4293 30.0183C32.3595 30.2047 32.3621 30.4104 32.4365 30.595C32.6778 31.0965 33.0737 31.5376 33.5676 31.5037C34.25 31.4584 34.4084 31.0286 34.3481 30.8174C34.2809 30.5767 34.1847 30.345 34.0615 30.1274C33.956 29.9615 34.0992 29.773 34.2614 29.9351C34.4235 30.0973 34.8005 30.6892 35.3208 30.8061C36.516 31.0625 36.3652 29.8522 35.909 29.5656C35.811 29.5053 35.6941 29.2904 35.9655 29.2527C36.361 29.1308 36.7182 28.9087 37.0024 28.6079C37.0808 28.52 37.14 28.4166 37.1761 28.3044C37.2122 28.1923 37.2245 28.0738 37.212 27.9566C37.1996 27.8394 37.1628 27.7261 37.104 27.624C37.0451 27.5219 36.9656 27.4332 36.8704 27.3637C36.3614 26.9866 35.875 27.3863 35.7393 27.473C35.6036 27.5597 35.3623 27.6804 35.2643 27.7294C35.1662 27.7784 35.0343 27.6502 35.1248 27.4881C35.1917 27.3658 35.2326 27.231 35.245 27.0921C35.2573 26.9533 35.2408 26.8134 35.1964 26.6812C35.1179 26.5806 35.0152 26.5015 34.8978 26.4513C34.7804 26.4012 34.6522 26.3817 34.5253 26.3947C34.3185 26.4348 34.1278 26.5342 33.9765 26.6808C33.8252 26.8275 33.7198 27.0149 33.6732 27.2204C33.6166 27.3976 33.6015 27.8274 33.4884 27.9142C33.2245 28.1178 33.5337 27.0771 32.7118 27.1374C31.8898 27.1978 31.7164 28.1404 31.8521 28.7965C31.8552 28.8295 31.8472 28.8626 31.8295 28.8907C31.4739 29.1728 31.0956 29.425 30.6984 29.6448C31.5392 27.7822 32.6627 26.4361 33.7335 25.1617C35.7129 22.8052 37.5038 20.6371 37.4774 16.1616C39.1977 16.44 40.8696 16.9618 42.4429 17.7112C41.683 18.1736 40.9881 18.7353 40.3768 19.3816C38.8195 21.0869 37.8405 23.2404 37.5792 25.535C37.2022 28.0914 38.2692 30.5083 39.2306 32.6989C40.2524 35.0291 41.1384 37.1141 39.3777 38.2981C37.1419 39.3425 35.3698 40.6207 34.4951 42.6605ZM48.8864 46.2425C46.7756 48.8373 43.9999 50.8103 40.8556 51.951C40.3957 51.8153 36.0334 50.4013 36.0334 45.8391C36.0334 42.57 38.3635 41.0015 41.5569 39.7045C42.59 39.3048 43.3893 39.4518 44.3168 39.5235C44.9693 39.591 45.6062 39.7655 46.2019 40.04C46.848 40.3924 47.4429 40.8313 47.9702 41.3446C47.744 41.2051 46.9371 40.7602 46.1341 40.353C45.9699 40.2744 45.7824 40.2599 45.6081 40.3122C45.4338 40.3645 45.2853 40.4798 45.1915 40.6358C44.954 41.1335 44.7654 41.7669 45.0897 42.144C45.5195 42.6115 45.9342 42.4494 46.0587 42.2684C46.2018 42.0655 46.3208 41.8466 46.4131 41.6161C46.4772 41.4314 46.7072 41.4125 46.6732 41.6161C46.6393 41.8197 46.4168 42.4984 46.6355 42.9509C46.8542 43.4033 47.333 43.5089 47.4989 43.3845C47.6624 43.2179 47.7659 43.0017 47.793 42.7699C47.793 42.6605 47.876 42.4381 48.0645 42.6115C48.253 42.785 48.3246 42.8151 48.679 42.8264C48.931 42.7856 49.1598 42.6552 49.3232 42.4591C49.4867 42.2631 49.5739 42.0146 49.5688 41.7594C49.4595 41.1637 49.0862 41.1373 48.7771 41.0053C48.679 40.96 48.7017 40.7866 48.8751 40.7414C49.0094 40.7107 49.1363 40.6535 49.2483 40.5733C49.3603 40.493 49.4552 40.3912 49.5274 40.2738C49.5497 40.1704 49.5482 40.0633 49.5231 39.9606C49.4979 39.8579 49.4498 39.7622 49.3822 39.6809C49.3146 39.5995 49.2295 39.5346 49.1331 39.491C49.0368 39.4474 48.9318 39.4263 48.8261 39.4292C48.4288 39.4505 48.0491 39.6 47.744 39.8553C47.6233 39.9458 47.367 39.9609 47.5366 39.7233C47.7063 39.4858 48.1663 39.0597 47.5743 38.6789C46.9824 38.2981 46.2396 38.8863 45.9757 39.2482C45.9331 39.2789 45.8842 39.2996 45.8324 39.3086C45.485 39.064 45.155 38.7956 44.8446 38.5055L45.8852 38.1284C46.3075 37.9738 46.8467 37.7928 47.2802 37.6458C49.3426 36.952 51.5445 36.2092 53.0639 34.9273C52.9733 39.0596 51.5027 43.0427 48.8864 46.2425ZM48.0343 31.6243C47.7968 31.4019 47.4273 30.8212 47.744 30.4555C48.0607 30.0897 48.3284 30.4555 48.4981 30.5987C48.6677 30.742 48.664 30.5648 48.6074 30.4706C48.4497 30.236 48.3704 29.9574 48.3812 29.675C48.3911 29.6006 48.4182 29.5295 48.4604 29.4675C48.5026 29.4054 48.5587 29.354 48.6242 29.3174C48.6897 29.2808 48.7628 29.26 48.8378 29.2566C48.9128 29.2532 48.9875 29.2674 49.0561 29.2979C49.213 29.4221 49.3168 29.6014 49.3464 29.7994C49.3464 29.9276 49.4859 29.9578 49.5236 29.8974C49.5613 29.8371 49.6367 29.6938 49.6857 29.5958C49.7399 29.4636 49.8341 29.3518 49.9552 29.276C50.0763 29.2003 50.2181 29.1644 50.3606 29.1735C50.5434 29.1955 50.7131 29.2799 50.8408 29.4125C50.9686 29.545 51.0467 29.7177 51.0619 29.9012C50.9824 30.1645 50.8245 30.3973 50.6094 30.5686C50.4699 30.6779 50.6094 30.7646 50.7037 30.7722C50.8684 30.8162 51.0149 30.9112 51.1222 31.0437C51.2014 31.1681 51.092 31.4886 50.7452 31.5904C50.4169 31.621 50.0866 31.5596 49.7913 31.4132C49.6329 31.3679 49.6292 31.5263 49.7573 31.5904C49.9157 31.681 50.0647 31.7871 50.2022 31.9071C50.3229 32.0164 50.4096 32.3181 50.0439 32.5632C49.7611 32.7517 49.2898 32.5368 48.9543 32.3143C48.8861 32.255 48.839 32.1751 48.82 32.0868C48.8009 31.9984 48.811 31.9063 48.8487 31.8242C49.1047 31.3652 49.3841 30.9197 49.6857 30.4894C49.2637 30.8087 48.8925 31.1901 48.5848 31.6205C48.4754 31.7789 48.2756 31.8468 48.0343 31.6243ZM38.4954 36.6353C38.2617 37.0727 37.8846 37.5666 37.4322 37.5214C36.844 37.461 36.7309 37.084 36.7912 36.8992C36.861 36.6899 36.9559 36.4899 37.074 36.3035C37.172 36.164 37.074 35.9905 36.9081 36.1338C36.7422 36.2771 36.4104 36.7899 35.9467 36.8615C35.4829 36.9332 35.1398 36.6579 35.1398 36.4845C35.1703 36.2801 35.2702 36.0924 35.4226 35.9528C35.5131 35.9038 35.6224 35.7191 35.3887 35.6776C35.0246 35.6153 34.6844 35.455 34.4046 35.2138C34.2916 35.0161 34.2582 34.7827 34.3115 34.5612C34.3648 34.3398 34.5006 34.147 34.6912 34.0223C34.8587 33.927 35.0506 33.8829 35.243 33.8957C35.4353 33.9084 35.6197 33.9774 35.7733 34.094C35.9014 34.1732 36.0862 34.2863 36.1729 34.3315C36.2596 34.3768 36.3765 34.2674 36.3086 34.1242C36.2536 34.0114 36.2229 33.8884 36.2183 33.7631C36.2138 33.6378 36.2355 33.5129 36.2822 33.3964C36.3478 33.3229 36.4286 33.2646 36.519 33.2256C36.6095 33.1867 36.7074 33.168 36.8058 33.1708C36.9042 33.1737 37.0009 33.1981 37.0889 33.2423C37.1769 33.2865 37.2542 33.3494 37.3153 33.4266C37.5242 33.7125 37.6305 34.0606 37.6169 34.4145C37.6169 34.5502 37.7564 34.7463 37.8318 34.4937C37.9072 34.241 37.9638 33.6981 38.5859 33.9168C39.208 34.1355 39.1892 34.9725 39.0723 35.3496C38.9554 35.7266 39.766 36.4241 39.5209 36.2846C38.7669 35.8623 37.0702 35.1233 36.3878 35.0592C37.0322 35.3515 37.6614 35.6762 38.273 36.032C38.3733 36.0921 38.45 36.1847 38.4905 36.2945C38.5309 36.4042 38.5327 36.5244 38.4954 36.6353ZM25.2578 27.6201C25.5289 27.6229 25.7924 27.7098 26.0119 27.8689C26.1514 27.9707 26.1967 27.801 26.1778 27.7256C26.1765 27.5588 26.2266 27.3956 26.3211 27.2581C26.4191 27.1488 26.7471 27.1676 26.9356 27.4617C27.0536 27.7612 27.085 28.0878 27.0261 28.4043C27.0261 28.5665 27.1769 28.525 27.2033 28.4043C27.2373 28.2269 27.2904 28.0537 27.3617 27.8878C27.4295 27.7445 27.6897 27.5824 28.0215 27.8576C28.2703 28.0725 28.1949 28.5627 28.078 28.9473C28.0406 29.0276 27.978 29.0934 27.8998 29.1349C27.8215 29.1764 27.7319 29.1913 27.6445 29.1773C27.1456 29.0625 26.6535 28.9202 26.1703 28.7512C26.5814 29.0606 27.0363 29.3071 27.52 29.4827C27.7123 29.5581 27.8254 29.7202 27.6784 30.0068C27.5313 30.2933 27.0902 30.791 26.6642 30.595C26.2381 30.3989 26.4983 30.0445 26.5963 29.8409C26.6943 29.6373 26.5209 29.6938 26.4455 29.773C26.2693 29.985 26.0303 30.1355 25.7631 30.2028C25.6906 30.2135 25.6167 30.2071 25.5471 30.1843C25.4776 30.1614 25.4143 30.1226 25.3623 30.071C25.3104 30.0194 25.2712 29.9564 25.2478 29.887C25.2244 29.8176 25.2175 29.7437 25.2277 29.6712C25.297 29.4925 25.4318 29.3469 25.6047 29.264C25.7178 29.2112 25.7141 29.0868 25.65 29.0679C25.5859 29.0491 25.4275 29.0189 25.3219 28.9963C25.1885 28.9795 25.0634 28.9225 24.963 28.833C24.8627 28.7434 24.792 28.6255 24.7602 28.4948C24.7281 28.3139 24.7603 28.1274 24.8512 27.9676C24.9421 27.8079 25.0859 27.685 25.2578 27.6201ZM43.197 23.8043C42.9595 23.4009 42.7446 22.8617 42.9708 22.5525C43.2724 22.1491 43.6117 22.266 43.7248 22.413C43.8541 22.5746 43.9666 22.7489 44.0604 22.9333C44.1245 23.0804 44.3055 23.0879 44.2602 22.9032C44.215 22.7184 43.985 22.1906 44.117 21.8097C44.2489 21.4289 44.6184 21.3196 44.7579 21.4327C44.9019 21.5624 45.002 21.7337 45.0445 21.9229C45.0445 22.0133 45.1387 22.1943 45.2707 22.0435C45.476 21.8082 45.7483 21.6411 46.0511 21.5647C46.2595 21.5927 46.452 21.6915 46.5962 21.8446C46.7403 21.9977 46.8275 22.1957 46.8429 22.4055C46.8473 22.5701 46.7993 22.7319 46.7058 22.8674C46.6122 23.003 46.4781 23.1053 46.3226 23.1596C46.2057 23.2086 46.0398 23.2878 45.9682 23.3255C45.8965 23.3632 45.9267 23.5065 46.07 23.5366C46.2968 23.5853 46.4957 23.7205 46.6242 23.9137C46.6573 23.9938 46.6709 24.0806 46.6638 24.167C46.6567 24.2533 46.6292 24.3368 46.5835 24.4104C46.5379 24.4841 46.4754 24.5458 46.4011 24.5906C46.3269 24.6353 46.2431 24.6618 46.1567 24.6678C45.8347 24.6583 45.5242 24.546 45.2707 24.3473C45.1689 24.2756 44.9577 24.2756 45.1199 24.4642C45.282 24.6527 45.6703 24.9807 45.2405 25.3163C44.8107 25.6519 44.166 25.2032 43.9284 24.9204C43.6909 24.6376 43.7739 24.4189 43.9699 24.2832C44.4726 23.956 44.9237 23.5557 45.3084 23.0955C44.8038 23.4143 44.2828 23.7062 43.7475 23.9702C43.6503 24.0078 43.5434 24.012 43.4437 23.9819C43.344 23.9518 43.2572 23.8894 43.197 23.8043ZM42.8501 43.1243C42.6729 43.7691 42.1564 43.5014 41.8887 43.3995C41.621 43.2977 41.7115 43.5466 41.8284 43.6258C42.1446 43.8252 42.3879 44.1214 42.5221 44.4704C42.5524 44.5683 42.5603 44.6717 42.5452 44.773C42.53 44.8744 42.4923 44.971 42.4347 45.0558C42.3771 45.1405 42.3012 45.2112 42.2125 45.2626C42.1239 45.314 42.0248 45.3448 41.9226 45.3527C41.7964 45.3228 41.6773 45.2681 41.5725 45.1917C41.4676 45.1153 41.379 45.0188 41.3118 44.9077C41.2251 44.7607 41.0592 44.7946 41.0479 44.9077C41.0366 45.0209 41.0215 45.2245 41.0178 45.3791C41.0313 45.6009 40.967 45.8205 40.8359 46C40.7048 46.1795 40.5152 46.3076 40.2997 46.3621C40.0842 46.4166 39.8565 46.3942 39.6558 46.2987C39.4551 46.2032 39.2941 46.0406 39.2005 45.8391C39.1539 45.4635 39.2167 45.0825 39.3814 44.7418C39.487 44.5194 39.257 44.5043 39.159 44.5458C38.942 44.5896 38.7167 44.5604 38.518 44.4628C38.3559 44.3535 38.3144 43.8935 38.6688 43.5579C39.0233 43.2223 39.6793 43.2336 39.8942 43.1809C40.1091 43.1281 40.0262 42.9433 39.8376 42.9433C39.6026 42.929 39.37 42.8885 39.1439 42.8227C38.9403 42.7661 38.6764 42.4456 38.9818 41.914C39.208 41.5369 39.849 41.4917 40.373 41.5558C40.5052 41.6085 40.6166 41.7029 40.6901 41.8248C40.7636 41.9466 40.7953 42.0892 40.7802 42.2307C40.7253 42.9135 40.6359 43.593 40.5125 44.2668C40.8293 43.6478 41.059 42.988 41.195 42.3061C41.2741 41.9668 41.474 41.7217 41.8774 41.8499C42.2808 41.9781 43.0273 42.4796 42.8501 43.1243Z" fill="white"/>
</svg>
