<svg width="1521" height="1521" viewBox="0 0 1521 1521" fill="none" xmlns="http://www.w3.org/2000/svg">
<g style="mix-blend-mode:soft-light" opacity="0.3">
<path d="M1477.26 687.842C1460.45 521.998 1386.66 367.114 1268.46 249.58C1150.26 132.046 994.961 59.1352 829.031 43.2713C663.102 27.4074 496.805 69.5718 358.477 162.58C220.149 255.588 118.349 393.685 70.4227 553.34C22.4966 712.995 31.4099 884.33 95.6438 1038.15C159.878 1191.97 275.458 1318.76 422.69 1396.91C569.922 1475.06 739.696 1499.74 903.084 1466.74C1066.47 1433.74 1213.36 1345.11 1318.73 1215.95C1378.62 1142.69 1423.45 1058.33 1450.66 967.703C1477.86 877.078 1486.9 781.971 1477.26 687.842ZM1314.66 427.334C1356.11 496.444 1384.28 572.689 1397.73 652.146C1386.97 726.427 1289.47 762.911 1196.82 794.277C1182.15 720.137 1185.89 643.53 1207.71 571.171C1225.93 512.438 1263.66 461.691 1314.66 427.334ZM1169.13 259.48C1209.22 292.066 1245.23 329.391 1276.34 370.639C1212.6 413.313 1165.41 476.537 1142.62 549.78C1139.73 558.573 1137.24 567.628 1135.01 576.683C1129.67 570.079 1123.88 563.852 1117.68 558.048C1119.24 556.055 1120.39 553.783 1121.09 551.355C1125.29 538.231 1125.43 514.345 1107.05 503.977C1088.68 493.61 1085.92 512.902 1083.3 521.695C1080.68 530.488 1076.74 522.876 1076.87 518.02C1077.87 505.354 1075.28 492.661 1069.39 481.404C1068.14 478.478 1066.17 475.916 1063.66 473.956C1061.15 471.995 1058.19 470.699 1055.05 470.189C1051.91 469.678 1048.69 469.969 1045.69 471.035C1042.69 472.101 1040.01 473.907 1037.89 476.286C1034.88 484.506 1034.88 493.527 1037.89 501.746C1039.73 507.258 1035.92 510.671 1033.43 508.702C1030.94 506.733 1025.43 502.009 1021.62 498.597C1017.81 495.184 1003.25 482.323 988.681 491.903C982.465 496.583 978.036 503.247 976.126 510.79C974.217 518.332 974.942 526.301 978.183 533.375C985.84 542.822 995.972 549.956 1007.45 553.979C1014.53 556.342 1010.86 562.51 1007.45 563.953C1002.26 568.688 998.799 575.013 997.605 581.933C998.801 587.228 1001.92 591.891 1006.36 595.019C1010.79 598.146 1016.23 599.516 1021.62 598.863C1035.79 597.682 1047.87 581.014 1052.2 576.552C1056.53 572.09 1060.2 578.652 1056.92 583.377C1053.13 589.88 1050.1 596.793 1047.87 603.981C1045.64 610.412 1048.65 624.454 1066.5 628.916C1079.63 632.329 1091.57 622.879 1099.44 608.312C1100.22 603.012 1099.72 597.603 1097.99 592.534C1096.25 587.466 1093.33 582.886 1089.47 579.177C1074.18 563.135 1057.25 548.75 1038.94 536.262C1066.9 547.142 1092.12 564.033 1112.83 585.739C1125.95 604.375 1125.16 621.042 1122.93 648.733C1117.88 704.835 1120.97 761.373 1132.12 816.587L1086.71 832.73L1038.68 849.791C1043.54 797.295 1017.16 736.007 988.55 670.781C958.76 602.669 926.083 527.994 936.057 458.044C943.445 392.115 971.461 330.202 1016.11 281.135C1042.54 253.274 1074.26 230.965 1109.41 215.515C1130.13 229.035 1150.07 243.713 1169.13 259.48ZM694.983 117.087C728.422 113.675 762.076 112.886 795.638 114.724C798.132 240.976 751.413 307.251 696.427 373.658C694.633 350.231 690.231 327.077 683.303 304.626C675.37 282.048 665.718 260.11 654.432 239.007C668.189 254.159 679.681 271.222 688.553 289.665C689.15 292.015 690.296 294.191 691.896 296.013C693.496 297.835 695.505 299.252 697.759 300.148C700.012 301.044 702.445 301.394 704.86 301.169C707.274 300.944 709.601 300.15 711.65 298.852C723.985 293.209 740.652 277.854 732.778 260.268C724.904 242.682 709.419 253.181 701.282 257.118C693.146 261.055 694.983 253.837 698.526 250.95C707.467 243.938 713.984 234.299 717.161 223.39C721.229 207.772 703.251 199.242 694.983 201.21C687.294 204.023 680.962 209.653 677.267 216.959C674.904 221.552 669.524 221.421 668.868 218.665C668.212 215.909 666.899 209.61 666.112 205.541C665.132 199.973 662.379 194.87 658.265 190.991C654.151 187.113 648.894 184.668 643.277 184.018C624.905 181.131 608.37 191.63 606.664 201.21C606.93 212.059 610.552 222.559 617.031 231.264C621.23 237.039 614.013 238.613 610.732 237.957C606.783 237.867 602.909 239.051 599.686 241.336C596.464 243.62 594.063 246.883 592.84 250.639C591.618 254.395 591.638 258.446 592.899 262.19C594.16 265.934 596.594 269.171 599.839 271.423C608.238 279.953 631.991 272.867 639.209 272.998C646.427 273.129 644.196 279.166 638.291 280.216C630.864 281.765 623.61 284.051 616.637 287.04C610.469 289.796 603.514 300.164 614.8 313.288C623.461 323.525 643.934 321.031 660.338 316.7C663.881 315.65 669.524 332.974 670.574 341.898C675.273 368.036 671.311 394.993 659.288 418.672C649.314 430.878 639.34 443.345 629.498 456.6C621.052 418.297 605.566 381.896 583.829 349.247C542.655 287.608 482.889 240.714 413.227 215.384H412.308C497.558 160.979 594.372 127.313 694.983 117.087ZM259.423 351.61C284.162 321.145 311.615 292.988 341.443 267.486C357.536 270.507 373.341 274.897 388.687 280.61C444.572 300.917 492.522 338.524 525.562 387.963C557.164 434.03 571.138 489.929 564.932 545.449C563.013 561.71 559.226 577.695 553.646 593.088V594.401C525.566 666.245 512.999 743.217 516.769 820.262C517.952 835.412 520.233 850.457 523.593 865.277C495.247 854.384 465.457 843.885 435.012 833.123L389.736 817.112C408.678 728.579 404.84 636.687 378.582 550.042C369.039 520.75 355.81 492.79 339.212 466.837C339.093 460.202 340.309 453.611 342.789 447.456C345.269 441.301 348.962 435.708 353.647 431.009C368.986 414.357 387.992 401.506 409.159 393.475C394.896 404.685 381.715 417.207 369.789 430.878C363.49 437.702 361.653 447.282 364.409 450.826C372.807 461.456 385.274 472.48 397.085 469.199C412.833 464.737 414.014 453.844 411.521 449.12C408.56 443.816 405.041 438.845 401.022 434.29C397.61 431.009 399.841 425.759 404.566 428.909C411.516 435.387 420.429 439.36 429.893 440.196C434.4 440.521 438.851 439.045 442.27 436.093C445.69 433.141 447.799 428.952 448.135 424.447C446.953 419.576 443.884 415.375 439.605 412.767C436.98 411.848 433.174 407.386 439.605 405.155C449.183 401.676 457.625 395.639 464.014 387.7C466.15 381.835 465.984 375.378 463.548 369.631C461.113 363.884 456.59 359.273 450.891 356.728C445.871 354.954 440.443 354.679 435.27 355.938C430.097 357.196 425.401 359.933 421.757 363.815C418.608 366.702 414.146 370.639 412.046 372.214C409.946 373.789 406.14 371.558 407.322 367.227C408.236 363.997 408.463 360.612 407.988 357.289C407.514 353.966 406.348 350.779 404.566 347.935C402.431 346.249 399.954 345.05 397.307 344.423C394.66 343.797 391.908 343.757 389.244 344.307C386.58 344.858 384.069 345.985 381.887 347.609C379.705 349.233 377.905 351.315 376.613 353.709C372.421 362.489 371.223 372.4 373.201 381.926C373.857 385.6 371.101 391.637 367.821 385.207C364.54 378.776 360.34 364.209 344.724 373.133C329.107 382.057 333.438 404.761 338.293 414.342C339.254 416.18 340.544 417.826 342.099 419.197C335.403 425.849 329.381 433.147 324.12 440.983V444.133C302.156 415.489 275.539 390.734 245.381 370.902C249.58 364.209 254.305 357.909 259.423 351.61ZM206.011 427.334C257.106 461.823 294.851 512.77 312.965 571.696C315.459 579.308 317.559 587.051 319.527 594.794C312.345 591.183 304.884 588.155 297.218 585.739C298.084 583.437 298.442 580.974 298.267 578.521C298.267 565.397 290.787 545.055 272.021 544.268C253.255 543.48 256.273 560.935 256.535 569.597C256.798 578.258 251.155 573.534 249.843 569.597C246.913 558.627 240.682 548.822 231.995 541.512C229.579 539.747 226.781 538.577 223.828 538.096C220.875 537.616 217.85 537.838 214.999 538.746C212.148 539.654 209.551 541.221 207.42 543.321C205.288 545.42 203.681 547.993 202.73 550.83C202.597 558.544 205.253 566.047 210.21 571.959C213.491 575.896 211.26 580.358 208.373 579.833C205.486 579.308 199.318 577.602 195.25 576.29C189.872 574.08 183.913 573.719 178.307 575.263C172.702 576.807 167.768 580.169 164.279 584.82C160.124 590.855 158.192 598.145 158.814 605.445C159.437 612.746 162.574 619.604 167.691 624.848C177.597 629.618 188.704 631.31 199.581 629.704C206.536 628.654 205.224 635.61 203.255 637.972C200.274 643.981 199.264 650.778 200.368 657.395C202.074 663.17 214.541 668.55 226.614 661.464C238.688 654.377 243.806 635.216 246.562 629.179C249.318 623.142 254.305 627.604 252.861 632.985C251.003 639.932 249.903 647.061 249.58 654.245C249.58 660.807 256.404 671.438 273.464 667.369C279.992 664.955 285.645 660.638 289.693 654.976C293.74 649.314 295.996 642.567 296.168 635.61C296.955 630.36 287.9 617.892 278.058 615.661C259.526 608.57 240.239 603.638 220.578 600.963C247.685 597.958 275.119 601.421 300.63 611.068C318.477 620.911 326.876 638.234 329.763 663.563H330.551C333.881 707.427 331.543 751.536 323.595 794.802C231.076 762.911 133.439 726.427 122.81 651.883C136.294 572.499 164.514 496.338 206.011 427.334ZM538.291 1367.92C424.281 1326.15 324.319 1253.14 249.828 1157.25C175.336 1061.36 129.32 946.447 117.035 825.643C115.329 808.844 114.28 791.914 113.886 774.985C166.379 819.606 243.412 845.46 315.328 869.739L357.322 884.044C347.289 894.591 338.158 905.961 330.026 918.035C312.178 944.282 304.435 981.029 297.742 1012C297.24 988.603 300.384 965.27 307.06 942.839C307.97 940.467 308.342 937.923 308.152 935.39C307.961 932.857 307.211 930.397 305.956 928.189C304.701 925.98 302.972 924.077 300.894 922.616C298.816 921.155 296.44 920.173 293.937 919.741C277.926 916.329 266.115 916.329 257.717 929.059C246.431 946.12 253.648 957.537 259.685 960.031C264.714 962.646 270.19 964.293 275.827 964.887C281.601 964.887 283.438 972.367 276.614 973.155C264.63 972.743 252.852 976.346 243.15 983.391C231.076 993.759 230.814 1009.64 235.407 1013.44C241.186 1017.21 248.133 1018.75 254.961 1017.78C258.241 1016.59 265.328 1017.78 261.26 1024.86C259.282 1027.92 258.008 1031.38 257.531 1034.99C257.055 1038.59 257.387 1042.26 258.504 1045.73C260.859 1053 265.967 1059.07 272.736 1062.63C279.505 1066.18 287.398 1066.95 294.724 1064.76C311.522 1056.75 310.078 1044.94 312.309 1034.31C313.097 1031.03 318.346 1030.37 320.577 1035.36C322.178 1039.18 324.556 1042.62 327.562 1045.47C330.567 1048.32 334.132 1050.51 338.031 1051.9C341.355 1051.69 344.595 1050.76 347.531 1049.19C350.466 1047.62 353.03 1045.43 355.046 1042.78C357.062 1040.13 358.485 1037.07 359.217 1033.82C359.95 1030.57 359.975 1027.2 359.29 1023.94C356.584 1012.1 350.031 1001.49 340.655 993.759C337.375 990.741 335.406 982.604 343.411 986.279C351.417 989.953 366.377 1000.58 374.12 979.323C381.862 958.062 360.996 939.952 347.873 934.177C347.217 934.177 346.298 932.471 345.249 930.24C354.44 914.739 367.811 902.14 383.831 893.887L409.29 902.942C496.297 933.39 575.43 961.343 630.154 1003.6C625.27 1010.07 619.631 1015.93 613.356 1021.06C594.721 1033.39 497.478 1122.37 478.449 1139.17C486.192 1120.01 515.588 1089.43 535.273 1066.07C545.641 1053.87 548.396 1041.14 542.622 1035.76C525.168 1018.96 499.578 1003.08 480.549 1012.13C455.09 1024.21 456.665 1043.5 462.833 1051.5C469.615 1059.83 477.319 1067.36 485.799 1073.95C492.754 1078.8 490.654 1088.64 481.468 1084.44C472.282 1080.25 447.347 1062.79 425.3 1066.2C403.253 1069.62 392.623 1088.25 395.904 1096.65C400.856 1105.59 408.666 1112.62 418.083 1116.6C422.938 1117.52 431.206 1124.34 421.495 1129.72C409.038 1137.45 399.487 1149.07 394.33 1162.79C389.343 1177.49 401.941 1205.97 428.319 1213.06C435.733 1215.89 443.951 1215.77 451.277 1212.71C458.603 1209.66 464.478 1203.91 467.688 1196.65C472.019 1191.01 478.318 1183.53 480.812 1179.46C483.305 1175.39 490.917 1179.46 490.523 1186.94C490.18 1192.92 491.024 1198.91 493.006 1204.57C494.988 1210.22 498.069 1215.43 502.071 1219.88C506.154 1222.27 510.722 1223.71 515.436 1224.09C520.149 1224.47 524.888 1223.78 529.3 1222.08C533.712 1220.38 537.685 1217.7 540.922 1214.25C544.16 1210.81 546.58 1206.68 548.003 1202.17C552.047 1185.35 550.574 1167.68 543.803 1151.77C541.441 1145.6 543.803 1134.32 551.94 1144.81C560.076 1155.31 572.149 1179.33 595.771 1159.38C619.393 1139.43 606.664 1101.11 589.997 1083C601.501 1071.04 616.032 1062.41 632.045 1058.04C648.058 1053.68 664.956 1053.73 680.941 1058.2C698.497 1087.45 707.415 1121.07 706.663 1155.18C706.663 1314.24 554.564 1363.33 538.291 1367.92ZM760.337 1044.55C733.434 981.817 682.647 939.82 617.031 905.829C599.577 888.9 588.16 856.878 584.748 813.963C582.12 767.457 587.04 720.833 599.315 675.9C617.95 634.026 651.353 600.482 693.146 581.671L695.77 580.358C724.379 567.234 744.458 557.916 776.61 560.147C761.255 560.147 729.76 573.271 701.807 589.545C695.634 592.686 690.861 598.027 688.432 604.513C686.003 611 686.092 618.162 688.684 624.586C697.083 642.04 710.862 657.395 728.054 656.214C751.807 654.639 757.318 639.678 755.219 632.329C752.881 623.948 749.532 615.883 745.245 608.312C741.571 602.537 746.557 595.976 752.2 601.619C757.843 607.262 770.967 627.866 789.077 631.935C830.677 640.859 825.428 598.732 809.549 588.757C806.137 586.658 802.069 579.177 811.517 577.865C825.282 573.623 837.714 565.892 847.606 555.423C850.337 552.362 852.397 548.764 853.654 544.859C854.911 540.954 855.337 536.83 854.904 532.751C854.471 528.672 853.19 524.728 851.142 521.174C849.094 517.62 846.325 514.534 843.013 512.114C825.297 498.99 808.368 512.902 803.643 515.92C798.919 518.939 790.52 523.138 787.108 524.844C783.696 526.55 779.103 522.088 782.253 516.445C784.583 512.189 786.007 507.497 786.437 502.663C786.866 497.83 786.29 492.96 784.746 488.36C782.015 484.856 778.439 482.103 774.353 480.359C770.268 478.615 765.806 477.936 761.387 478.386C754.188 479.783 747.551 483.244 742.285 488.347C737.019 493.45 733.351 499.976 731.728 507.127C729.76 513.295 729.235 528.257 725.298 531.275C716.111 538.362 726.872 502.14 698.264 504.24C669.655 506.34 663.618 539.149 668.343 561.985C668.449 563.135 668.172 564.289 667.555 565.266C655.177 575.084 642.009 583.863 628.186 591.513C657.451 526.682 696.558 479.83 733.828 435.471C802.725 353.447 865.06 277.985 864.142 122.205C924.019 131.898 982.212 150.06 1036.97 176.144C1010.52 192.238 986.338 211.79 965.059 234.282C910.856 293.639 876.778 368.596 867.685 448.464C854.562 537.443 891.7 621.567 925.165 697.817C960.729 778.922 991.568 851.497 930.283 892.706C852.462 929.059 790.783 973.549 760.337 1044.55ZM1261.25 1169.22C1187.78 1259.54 1091.17 1328.21 981.726 1367.92C965.715 1363.2 813.88 1313.98 813.88 1155.18C813.88 1041.4 894.981 986.804 1006.14 941.658C1042.09 927.746 1069.91 932.865 1102.2 935.358C1124.91 937.707 1147.08 943.782 1167.81 953.338C1190.3 965.603 1211.01 980.88 1229.36 998.746C1221.49 993.89 1193.4 978.404 1165.45 964.231C1159.74 961.496 1153.21 960.989 1147.14 962.809C1141.08 964.629 1135.91 968.646 1132.64 974.073C1124.38 991.397 1117.81 1013.44 1129.1 1026.57C1144.06 1042.84 1158.5 1037.2 1162.83 1030.9C1167.81 1023.84 1171.95 1016.22 1175.16 1008.2C1177.39 1001.76 1185.4 1001.11 1184.22 1008.2C1183.04 1015.28 1175.29 1038.91 1182.91 1054.65C1190.52 1070.4 1207.18 1074.08 1212.96 1069.75C1218.65 1063.95 1222.25 1056.42 1223.19 1048.35C1223.19 1044.55 1226.08 1036.81 1232.64 1042.84C1239.2 1048.88 1241.7 1049.93 1254.03 1050.32C1262.8 1048.9 1270.77 1044.36 1276.46 1037.54C1282.15 1030.71 1285.18 1022.07 1285 1013.18C1281.2 992.447 1268.21 991.528 1257.45 986.935C1254.03 985.36 1254.82 979.323 1260.86 977.748C1265.53 976.68 1269.95 974.691 1273.85 971.897C1277.75 969.103 1281.05 965.56 1283.56 961.475C1284.34 957.877 1284.29 954.149 1283.41 950.574C1282.54 946.998 1280.86 943.668 1278.51 940.836C1276.16 938.005 1273.19 935.744 1269.84 934.227C1266.49 932.709 1262.83 931.974 1259.15 932.077C1245.32 932.818 1232.11 938.022 1221.49 946.907C1217.29 950.057 1208.36 950.582 1214.27 942.314C1220.18 934.046 1236.19 919.216 1215.58 905.961C1194.98 892.706 1169.13 913.179 1159.94 925.778C1158.46 926.846 1156.75 927.564 1154.95 927.878C1142.86 919.364 1131.37 910.024 1120.57 899.924L1156.79 886.8C1171.49 881.419 1190.25 875.12 1205.35 870.001C1277.13 845.853 1353.77 820 1406.66 775.378C1403.5 919.21 1352.32 1057.85 1261.25 1169.22ZM1231.59 660.414C1223.32 652.671 1210.46 632.46 1221.49 619.73C1232.51 607 1241.83 619.73 1247.73 624.717C1253.64 629.704 1253.51 623.536 1251.54 620.255C1246.05 612.091 1243.29 602.395 1243.67 592.563C1244.01 589.974 1244.95 587.501 1246.42 585.34C1247.89 583.18 1249.84 581.391 1252.12 580.117C1254.4 578.843 1256.95 578.118 1259.56 578.001C1262.17 577.883 1264.77 578.376 1267.16 579.44C1272.62 583.763 1276.23 590.004 1277.26 596.894C1277.26 601.356 1282.12 602.406 1283.43 600.306C1284.74 598.207 1287.37 593.22 1289.07 589.807C1290.96 585.207 1294.24 581.314 1298.45 578.678C1302.67 576.041 1307.6 574.792 1312.56 575.109C1318.93 575.873 1324.83 578.811 1329.28 583.426C1333.73 588.041 1336.44 594.05 1336.97 600.438C1334.2 609.601 1328.71 617.703 1321.22 623.667C1316.37 627.473 1321.22 630.491 1324.5 630.754C1330.24 632.286 1335.34 635.593 1339.07 640.203C1341.83 644.534 1338.02 655.689 1325.95 659.232C1314.52 660.298 1303.03 658.163 1292.75 653.064C1287.23 651.489 1287.1 657.001 1291.57 659.232C1297.08 662.388 1302.27 666.08 1307.05 670.256C1311.25 674.062 1314.27 684.561 1301.54 693.092C1291.7 699.654 1275.29 692.173 1263.61 684.43C1261.24 682.365 1259.6 679.586 1258.94 676.511C1258.28 673.436 1258.63 670.229 1259.94 667.369C1268.85 651.395 1278.57 635.889 1289.07 620.911C1274.38 632.025 1261.46 645.299 1250.75 660.282C1246.95 665.794 1239.99 668.157 1231.59 660.414ZM899.574 834.829C891.438 850.053 878.315 867.245 862.567 865.67C842.095 863.571 838.158 850.447 840.257 844.016C842.685 836.73 845.99 829.767 850.1 823.28C853.512 818.425 850.1 812.388 844.325 817.375C838.551 822.362 827.003 840.21 810.861 842.704C794.72 845.197 782.777 835.617 782.777 829.58C783.84 822.466 787.314 815.932 792.62 811.075C795.77 809.369 799.575 802.939 791.439 801.495C778.767 799.327 766.925 793.746 757.187 785.353C753.252 778.471 752.092 770.346 753.946 762.638C755.8 754.93 760.527 748.221 767.161 743.881C772.993 740.562 779.671 739.028 786.367 739.471C793.063 739.915 799.481 742.315 804.825 746.375C809.286 749.131 815.717 753.068 818.735 754.643C821.753 756.218 825.822 752.412 823.46 747.425C821.545 743.501 820.474 739.22 820.316 734.858C820.158 730.495 820.916 726.147 822.541 722.096C824.821 719.536 827.635 717.507 830.783 716.15C833.931 714.794 837.338 714.143 840.764 714.243C844.191 714.343 847.554 715.191 850.618 716.73C853.681 718.268 856.371 720.457 858.499 723.146C865.77 733.098 869.469 745.213 868.997 757.53C868.997 762.255 873.853 769.079 876.477 760.286C879.102 751.493 881.071 732.595 902.724 740.207C924.377 747.818 923.721 776.953 919.653 790.077C915.585 803.201 943.8 827.48 935.27 822.624C909.023 807.926 849.968 782.203 826.215 779.972C848.645 790.144 870.545 801.445 891.832 813.831C895.323 815.924 897.995 819.147 899.403 822.966C900.811 826.785 900.872 830.971 899.574 834.829ZM438.817 521.038C448.252 521.137 457.424 524.163 465.064 529.7C469.919 533.244 471.494 527.338 470.838 524.713C470.794 518.906 472.535 513.225 475.825 508.44C479.237 504.634 490.654 505.29 497.216 515.526C501.323 525.951 502.414 537.321 500.365 548.336C500.365 553.979 505.615 552.536 506.533 548.336C507.715 542.161 509.563 536.132 512.045 530.356C514.407 525.369 523.462 519.726 535.011 529.306C543.672 536.787 541.047 553.848 536.979 567.234C535.677 570.029 533.498 572.322 530.775 573.767C528.052 575.211 524.931 575.728 521.887 575.24C504.524 571.243 487.394 566.293 470.576 560.41C484.887 571.18 500.72 579.76 517.557 585.87C524.25 588.495 528.187 594.138 523.069 604.112C517.95 614.086 502.596 631.41 487.767 624.586C472.938 617.761 481.993 605.425 485.405 598.338C488.817 591.251 482.78 593.22 480.156 595.976C474.023 603.353 465.705 608.592 456.402 610.937C453.881 611.308 451.308 611.087 448.886 610.29C446.465 609.493 444.263 608.144 442.455 606.348C440.646 604.552 439.281 602.359 438.467 599.944C437.654 597.528 437.414 594.956 437.767 592.432C440.181 586.211 444.874 581.143 450.891 578.258C454.828 576.421 454.696 572.09 452.465 571.434C450.235 570.778 444.723 569.728 441.048 568.94C436.404 568.355 432.048 566.373 428.556 563.255C425.064 560.138 422.601 556.034 421.495 551.486C420.379 545.187 421.499 538.696 424.663 533.136C427.826 527.576 432.833 523.297 438.817 521.038ZM1063.22 388.225C1054.95 374.183 1047.47 355.416 1055.35 344.654C1065.85 330.611 1077.66 334.68 1081.59 339.798C1086.09 345.422 1090.01 351.49 1093.27 357.909C1095.5 363.027 1101.8 363.29 1100.23 356.859C1098.65 350.429 1090.65 332.055 1095.24 318.8C1099.84 305.545 1112.7 301.739 1117.55 305.676C1122.56 310.192 1126.05 316.154 1127.53 322.737C1127.53 325.887 1130.81 332.186 1135.4 326.937C1142.55 318.746 1152.02 312.931 1162.56 310.27C1169.82 311.244 1176.52 314.684 1181.54 320.013C1186.55 325.342 1189.59 332.235 1190.12 339.536C1190.28 345.266 1188.6 350.896 1185.35 355.614C1182.09 360.332 1177.42 363.893 1172.01 365.783C1167.94 367.489 1162.17 370.246 1159.68 371.558C1157.18 372.87 1158.23 377.857 1163.22 378.907C1171.12 380.6 1178.04 385.309 1182.51 392.031C1183.66 394.819 1184.13 397.841 1183.89 400.847C1183.64 403.854 1182.69 406.758 1181.1 409.322C1179.51 411.886 1177.33 414.035 1174.75 415.592C1172.16 417.149 1169.25 418.07 1166.24 418.279C1155.03 417.95 1144.22 414.04 1135.4 407.123C1131.86 404.63 1124.51 404.63 1130.15 411.192C1135.79 417.754 1149.31 429.172 1134.35 440.852C1119.39 452.532 1096.95 436.915 1088.68 427.072C1080.41 417.229 1083.3 409.617 1090.12 404.892C1107.62 393.505 1123.32 379.572 1136.71 363.552C1119.15 374.648 1101.01 384.811 1082.38 394C1079 395.309 1075.28 395.452 1071.81 394.406C1068.34 393.36 1065.32 391.184 1063.22 388.225ZM1051.15 1060.69C1044.98 1083.13 1027 1073.81 1017.68 1070.27C1008.37 1066.73 1011.52 1075.39 1015.58 1078.15C1026.59 1085.09 1035.06 1095.4 1039.73 1107.54C1040.79 1110.95 1041.06 1114.55 1040.53 1118.08C1040.01 1121.61 1038.69 1124.97 1036.69 1127.92C1034.68 1130.87 1032.04 1133.33 1028.95 1135.12C1025.87 1136.91 1022.42 1137.98 1018.86 1138.25C1014.47 1137.21 1010.33 1135.31 1006.68 1132.65C1003.03 1129.99 999.942 1126.63 997.605 1122.77C994.587 1117.65 988.812 1118.83 988.419 1122.77C988.025 1126.7 987.5 1133.79 987.369 1139.17C987.841 1146.89 985.603 1154.54 981.04 1160.79C976.477 1167.03 969.875 1171.49 962.376 1173.39C954.876 1175.29 946.949 1174.51 939.964 1171.18C932.978 1167.86 927.373 1162.2 924.115 1155.18C922.492 1142.11 924.68 1128.85 930.414 1116.99C934.088 1109.25 926.083 1108.72 922.671 1110.17C915.12 1111.69 907.276 1110.68 900.362 1107.28C894.719 1103.47 893.275 1087.46 905.611 1075.78C917.947 1064.1 940.781 1064.5 948.262 1062.66C955.742 1060.82 952.855 1054.39 946.293 1054.39C938.113 1053.89 930.014 1052.48 922.146 1050.19C915.06 1048.22 905.873 1037.07 916.503 1018.56C924.377 1005.44 946.687 1003.86 964.928 1006.1C969.53 1007.93 973.405 1011.22 975.964 1015.46C978.523 1019.7 979.625 1024.66 979.101 1029.59C977.188 1053.35 974.078 1077 969.784 1100.46C980.81 1078.91 988.803 1055.95 993.537 1032.21C996.293 1020.4 1003.25 1011.87 1017.29 1016.33C1031.33 1020.79 1057.32 1038.25 1051.15 1060.69Z" fill="white"/>
</g>
<g style="mix-blend-mode:multiply" filter="url(#filter0_b_338_2733)">
<path d="M1477.26 687.842C1460.45 521.998 1386.66 367.114 1268.46 249.58C1150.26 132.046 994.961 59.1352 829.031 43.2713C663.102 27.4074 496.805 69.5718 358.477 162.58C220.149 255.588 118.349 393.685 70.4227 553.34C22.4966 712.995 31.4099 884.33 95.6438 1038.15C159.878 1191.97 275.458 1318.76 422.69 1396.91C569.922 1475.06 739.696 1499.74 903.084 1466.74C1066.47 1433.74 1213.36 1345.11 1318.73 1215.95C1378.62 1142.69 1423.45 1058.33 1450.66 967.703C1477.86 877.078 1486.9 781.971 1477.26 687.842ZM1314.66 427.334C1356.11 496.444 1384.28 572.689 1397.73 652.146C1386.97 726.427 1289.47 762.911 1196.82 794.277C1182.15 720.137 1185.89 643.53 1207.71 571.171C1225.93 512.438 1263.66 461.691 1314.66 427.334ZM1169.13 259.48C1209.22 292.066 1245.23 329.391 1276.34 370.639C1212.6 413.313 1165.41 476.537 1142.62 549.78C1139.73 558.573 1137.24 567.628 1135.01 576.683C1129.67 570.079 1123.88 563.852 1117.68 558.048C1119.24 556.055 1120.39 553.783 1121.09 551.355C1125.29 538.231 1125.43 514.345 1107.05 503.977C1088.68 493.61 1085.92 512.902 1083.3 521.695C1080.68 530.488 1076.74 522.876 1076.87 518.02C1077.87 505.354 1075.28 492.661 1069.39 481.404C1068.14 478.478 1066.17 475.916 1063.66 473.956C1061.15 471.995 1058.19 470.699 1055.05 470.189C1051.91 469.678 1048.69 469.969 1045.69 471.035C1042.69 472.101 1040.01 473.907 1037.89 476.286C1034.88 484.506 1034.88 493.527 1037.89 501.746C1039.73 507.258 1035.92 510.671 1033.43 508.702C1030.94 506.733 1025.43 502.009 1021.62 498.597C1017.81 495.184 1003.25 482.323 988.681 491.903C982.465 496.583 978.036 503.247 976.126 510.79C974.217 518.332 974.942 526.301 978.183 533.375C985.84 542.822 995.972 549.956 1007.45 553.979C1014.53 556.342 1010.86 562.51 1007.45 563.953C1002.26 568.688 998.799 575.013 997.605 581.933C998.801 587.228 1001.92 591.891 1006.36 595.019C1010.79 598.146 1016.23 599.516 1021.62 598.863C1035.79 597.682 1047.87 581.014 1052.2 576.552C1056.53 572.09 1060.2 578.652 1056.92 583.377C1053.13 589.88 1050.1 596.793 1047.87 603.981C1045.64 610.412 1048.65 624.454 1066.5 628.916C1079.63 632.329 1091.57 622.879 1099.44 608.312C1100.22 603.012 1099.72 597.603 1097.99 592.534C1096.25 587.466 1093.33 582.886 1089.47 579.177C1074.18 563.135 1057.25 548.75 1038.94 536.262C1066.9 547.142 1092.12 564.033 1112.83 585.739C1125.95 604.375 1125.16 621.042 1122.93 648.733C1117.88 704.835 1120.97 761.373 1132.12 816.587L1086.71 832.73L1038.68 849.791C1043.54 797.295 1017.16 736.007 988.55 670.781C958.76 602.669 926.083 527.994 936.057 458.044C943.445 392.115 971.461 330.202 1016.11 281.135C1042.54 253.274 1074.26 230.965 1109.41 215.515C1130.13 229.035 1150.07 243.713 1169.13 259.48ZM694.983 117.087C728.422 113.675 762.076 112.886 795.638 114.724C798.132 240.976 751.413 307.251 696.427 373.658C694.633 350.231 690.231 327.077 683.303 304.626C675.37 282.048 665.718 260.11 654.432 239.007C668.189 254.159 679.681 271.222 688.553 289.665C689.15 292.015 690.296 294.191 691.896 296.013C693.496 297.835 695.505 299.252 697.759 300.148C700.012 301.044 702.445 301.394 704.86 301.169C707.274 300.944 709.601 300.15 711.65 298.852C723.985 293.209 740.652 277.854 732.778 260.268C724.904 242.682 709.419 253.181 701.282 257.118C693.146 261.055 694.983 253.837 698.526 250.95C707.467 243.938 713.984 234.299 717.161 223.39C721.229 207.772 703.251 199.242 694.983 201.21C687.294 204.023 680.962 209.653 677.267 216.959C674.904 221.552 669.524 221.421 668.868 218.665C668.212 215.909 666.899 209.61 666.112 205.541C665.132 199.973 662.379 194.87 658.265 190.991C654.151 187.113 648.894 184.668 643.277 184.018C624.905 181.131 608.37 191.63 606.664 201.21C606.93 212.059 610.552 222.559 617.031 231.264C621.23 237.039 614.013 238.613 610.732 237.957C606.783 237.867 602.909 239.051 599.686 241.336C596.464 243.62 594.063 246.883 592.84 250.639C591.618 254.395 591.638 258.446 592.899 262.19C594.16 265.934 596.594 269.171 599.839 271.423C608.238 279.953 631.991 272.867 639.209 272.998C646.427 273.129 644.196 279.166 638.291 280.216C630.864 281.765 623.61 284.051 616.637 287.04C610.469 289.796 603.514 300.164 614.8 313.288C623.461 323.525 643.934 321.031 660.338 316.7C663.881 315.65 669.524 332.974 670.574 341.898C675.273 368.036 671.311 394.993 659.288 418.672C649.314 430.878 639.34 443.345 629.498 456.6C621.052 418.297 605.566 381.896 583.829 349.247C542.655 287.608 482.889 240.714 413.227 215.384H412.308C497.558 160.979 594.372 127.313 694.983 117.087ZM259.423 351.61C284.162 321.145 311.615 292.988 341.443 267.486C357.536 270.507 373.341 274.897 388.687 280.61C444.572 300.917 492.522 338.524 525.562 387.963C557.164 434.03 571.138 489.929 564.932 545.449C563.013 561.71 559.226 577.695 553.646 593.088V594.401C525.566 666.245 512.999 743.217 516.769 820.262C517.952 835.412 520.233 850.457 523.593 865.277C495.247 854.384 465.457 843.885 435.012 833.123L389.736 817.112C408.678 728.579 404.84 636.687 378.582 550.042C369.039 520.75 355.81 492.79 339.212 466.837C339.093 460.202 340.309 453.611 342.789 447.456C345.269 441.301 348.962 435.708 353.647 431.009C368.986 414.357 387.992 401.506 409.159 393.475C394.896 404.685 381.715 417.207 369.789 430.878C363.49 437.702 361.653 447.282 364.409 450.826C372.807 461.456 385.274 472.48 397.085 469.199C412.833 464.737 414.014 453.844 411.521 449.12C408.56 443.816 405.041 438.845 401.022 434.29C397.61 431.009 399.841 425.759 404.566 428.909C411.516 435.387 420.429 439.36 429.893 440.196C434.4 440.521 438.851 439.045 442.27 436.093C445.69 433.141 447.799 428.952 448.135 424.447C446.953 419.576 443.884 415.375 439.605 412.767C436.98 411.848 433.174 407.386 439.605 405.155C449.183 401.676 457.625 395.639 464.014 387.7C466.15 381.835 465.984 375.378 463.548 369.631C461.113 363.884 456.59 359.273 450.891 356.728C445.871 354.954 440.443 354.679 435.27 355.938C430.097 357.196 425.401 359.933 421.757 363.815C418.608 366.702 414.146 370.639 412.046 372.214C409.946 373.789 406.14 371.558 407.322 367.227C408.236 363.997 408.463 360.612 407.988 357.289C407.514 353.966 406.348 350.779 404.566 347.935C402.431 346.249 399.954 345.05 397.307 344.423C394.66 343.797 391.908 343.757 389.244 344.307C386.58 344.858 384.069 345.985 381.887 347.609C379.705 349.233 377.905 351.315 376.613 353.709C372.421 362.489 371.223 372.4 373.201 381.926C373.857 385.6 371.101 391.637 367.821 385.207C364.54 378.776 360.34 364.209 344.724 373.133C329.107 382.057 333.438 404.761 338.293 414.342C339.254 416.18 340.544 417.826 342.099 419.197C335.403 425.849 329.381 433.147 324.12 440.983V444.133C302.156 415.489 275.539 390.734 245.381 370.902C249.58 364.209 254.305 357.909 259.423 351.61ZM206.011 427.334C257.106 461.823 294.851 512.77 312.965 571.696C315.459 579.308 317.559 587.051 319.527 594.794C312.345 591.183 304.884 588.155 297.218 585.739C298.084 583.437 298.442 580.974 298.267 578.521C298.267 565.397 290.787 545.055 272.021 544.268C253.255 543.48 256.273 560.935 256.535 569.597C256.798 578.258 251.155 573.534 249.843 569.597C246.913 558.627 240.682 548.822 231.995 541.512C229.579 539.747 226.781 538.577 223.828 538.096C220.875 537.616 217.85 537.838 214.999 538.746C212.148 539.654 209.551 541.221 207.42 543.321C205.288 545.42 203.681 547.993 202.73 550.83C202.597 558.544 205.253 566.047 210.21 571.959C213.491 575.896 211.26 580.358 208.373 579.833C205.486 579.308 199.318 577.602 195.25 576.29C189.872 574.08 183.913 573.719 178.307 575.263C172.702 576.807 167.768 580.169 164.279 584.82C160.124 590.855 158.192 598.145 158.814 605.445C159.437 612.746 162.574 619.604 167.691 624.848C177.597 629.618 188.704 631.31 199.581 629.704C206.536 628.654 205.224 635.61 203.255 637.972C200.274 643.981 199.264 650.778 200.368 657.395C202.074 663.17 214.541 668.55 226.614 661.464C238.688 654.377 243.806 635.216 246.562 629.179C249.318 623.142 254.305 627.604 252.861 632.985C251.003 639.932 249.903 647.061 249.58 654.245C249.58 660.807 256.404 671.438 273.464 667.369C279.992 664.955 285.645 660.638 289.693 654.976C293.74 649.314 295.996 642.567 296.168 635.61C296.955 630.36 287.9 617.892 278.058 615.661C259.526 608.57 240.239 603.638 220.578 600.963C247.685 597.958 275.119 601.421 300.63 611.068C318.477 620.911 326.876 638.234 329.763 663.563H330.551C333.881 707.427 331.543 751.536 323.595 794.802C231.076 762.911 133.439 726.427 122.81 651.883C136.294 572.499 164.514 496.338 206.011 427.334ZM538.291 1367.92C424.281 1326.15 324.319 1253.14 249.828 1157.25C175.336 1061.36 129.32 946.447 117.035 825.643C115.329 808.844 114.28 791.914 113.886 774.985C166.379 819.606 243.412 845.46 315.328 869.739L357.322 884.044C347.289 894.591 338.158 905.961 330.026 918.035C312.178 944.282 304.435 981.029 297.742 1012C297.24 988.603 300.384 965.27 307.06 942.839C307.97 940.467 308.342 937.923 308.152 935.39C307.961 932.857 307.211 930.397 305.956 928.189C304.701 925.98 302.972 924.077 300.894 922.616C298.816 921.155 296.44 920.173 293.937 919.741C277.926 916.329 266.115 916.329 257.717 929.059C246.431 946.12 253.648 957.537 259.685 960.031C264.714 962.646 270.19 964.293 275.827 964.887C281.601 964.887 283.438 972.367 276.614 973.155C264.63 972.743 252.852 976.346 243.15 983.391C231.076 993.759 230.814 1009.64 235.407 1013.44C241.186 1017.21 248.133 1018.75 254.961 1017.78C258.241 1016.59 265.328 1017.78 261.26 1024.86C259.282 1027.92 258.008 1031.38 257.531 1034.99C257.055 1038.59 257.387 1042.26 258.504 1045.73C260.859 1053 265.967 1059.07 272.736 1062.63C279.505 1066.18 287.398 1066.95 294.724 1064.76C311.522 1056.75 310.078 1044.94 312.309 1034.31C313.097 1031.03 318.346 1030.37 320.577 1035.36C322.178 1039.18 324.556 1042.62 327.562 1045.47C330.567 1048.32 334.132 1050.51 338.031 1051.9C341.355 1051.69 344.595 1050.76 347.531 1049.19C350.466 1047.62 353.03 1045.43 355.046 1042.78C357.062 1040.13 358.485 1037.07 359.217 1033.82C359.95 1030.57 359.975 1027.2 359.29 1023.94C356.584 1012.1 350.031 1001.49 340.655 993.759C337.375 990.741 335.406 982.604 343.411 986.279C351.417 989.953 366.377 1000.58 374.12 979.323C381.862 958.062 360.996 939.952 347.873 934.177C347.217 934.177 346.298 932.471 345.249 930.24C354.44 914.739 367.811 902.14 383.831 893.887L409.29 902.942C496.297 933.39 575.43 961.343 630.154 1003.6C625.27 1010.07 619.631 1015.93 613.356 1021.06C594.721 1033.39 497.478 1122.37 478.449 1139.17C486.192 1120.01 515.588 1089.43 535.273 1066.07C545.641 1053.87 548.396 1041.14 542.622 1035.76C525.168 1018.96 499.578 1003.08 480.549 1012.13C455.09 1024.21 456.665 1043.5 462.833 1051.5C469.615 1059.83 477.319 1067.36 485.799 1073.95C492.754 1078.8 490.654 1088.64 481.468 1084.44C472.282 1080.25 447.347 1062.79 425.3 1066.2C403.253 1069.62 392.623 1088.25 395.904 1096.65C400.856 1105.59 408.666 1112.62 418.083 1116.6C422.938 1117.52 431.206 1124.34 421.495 1129.72C409.038 1137.45 399.487 1149.07 394.33 1162.79C389.343 1177.49 401.941 1205.97 428.319 1213.06C435.733 1215.89 443.951 1215.77 451.277 1212.71C458.603 1209.66 464.478 1203.91 467.688 1196.65C472.019 1191.01 478.318 1183.53 480.812 1179.46C483.305 1175.39 490.917 1179.46 490.523 1186.94C490.18 1192.92 491.024 1198.91 493.006 1204.57C494.988 1210.22 498.069 1215.43 502.071 1219.88C506.154 1222.27 510.722 1223.71 515.436 1224.09C520.149 1224.47 524.888 1223.78 529.3 1222.08C533.712 1220.38 537.685 1217.7 540.922 1214.25C544.16 1210.81 546.58 1206.68 548.003 1202.17C552.047 1185.35 550.574 1167.68 543.803 1151.77C541.441 1145.6 543.803 1134.32 551.94 1144.81C560.076 1155.31 572.149 1179.33 595.771 1159.38C619.393 1139.43 606.664 1101.11 589.997 1083C601.501 1071.04 616.032 1062.41 632.045 1058.04C648.058 1053.68 664.956 1053.73 680.941 1058.2C698.497 1087.45 707.415 1121.07 706.663 1155.18C706.663 1314.24 554.564 1363.33 538.291 1367.92ZM760.337 1044.55C733.434 981.817 682.647 939.82 617.031 905.829C599.577 888.9 588.16 856.878 584.748 813.963C582.12 767.457 587.04 720.833 599.315 675.9C617.95 634.026 651.353 600.482 693.146 581.671L695.77 580.358C724.379 567.234 744.458 557.916 776.61 560.147C761.255 560.147 729.76 573.271 701.807 589.545C695.634 592.686 690.861 598.027 688.432 604.513C686.003 611 686.092 618.162 688.684 624.586C697.083 642.04 710.862 657.395 728.054 656.214C751.807 654.639 757.318 639.678 755.219 632.329C752.881 623.948 749.532 615.883 745.245 608.312C741.571 602.537 746.557 595.976 752.2 601.619C757.843 607.262 770.967 627.866 789.077 631.935C830.677 640.859 825.428 598.732 809.549 588.757C806.137 586.658 802.069 579.177 811.517 577.865C825.282 573.623 837.714 565.892 847.606 555.423C850.337 552.362 852.397 548.764 853.654 544.859C854.911 540.954 855.337 536.83 854.904 532.751C854.471 528.672 853.19 524.728 851.142 521.174C849.094 517.62 846.325 514.534 843.013 512.114C825.297 498.99 808.368 512.902 803.643 515.92C798.919 518.939 790.52 523.138 787.108 524.844C783.696 526.55 779.103 522.088 782.253 516.445C784.583 512.189 786.007 507.497 786.437 502.663C786.866 497.83 786.29 492.96 784.746 488.36C782.015 484.856 778.439 482.103 774.353 480.359C770.268 478.615 765.806 477.936 761.387 478.386C754.188 479.783 747.551 483.244 742.285 488.347C737.019 493.45 733.351 499.976 731.728 507.127C729.76 513.295 729.235 528.257 725.298 531.275C716.111 538.362 726.872 502.14 698.264 504.24C669.655 506.34 663.618 539.149 668.343 561.985C668.449 563.135 668.172 564.289 667.555 565.266C655.177 575.084 642.009 583.863 628.186 591.513C657.451 526.682 696.558 479.83 733.828 435.471C802.725 353.447 865.06 277.985 864.142 122.205C924.019 131.898 982.212 150.06 1036.97 176.144C1010.52 192.238 986.338 211.79 965.059 234.282C910.856 293.639 876.778 368.596 867.685 448.464C854.562 537.443 891.7 621.567 925.165 697.817C960.729 778.922 991.568 851.497 930.283 892.706C852.462 929.059 790.783 973.549 760.337 1044.55ZM1261.25 1169.22C1187.78 1259.54 1091.17 1328.21 981.726 1367.92C965.715 1363.2 813.88 1313.98 813.88 1155.18C813.88 1041.4 894.981 986.804 1006.14 941.658C1042.09 927.746 1069.91 932.865 1102.2 935.358C1124.91 937.707 1147.08 943.782 1167.81 953.338C1190.3 965.603 1211.01 980.88 1229.36 998.746C1221.49 993.89 1193.4 978.404 1165.45 964.231C1159.74 961.496 1153.21 960.989 1147.14 962.809C1141.08 964.629 1135.91 968.646 1132.64 974.073C1124.38 991.397 1117.81 1013.44 1129.1 1026.57C1144.06 1042.84 1158.5 1037.2 1162.83 1030.9C1167.81 1023.84 1171.95 1016.22 1175.16 1008.2C1177.39 1001.76 1185.4 1001.11 1184.22 1008.2C1183.04 1015.28 1175.29 1038.91 1182.91 1054.65C1190.52 1070.4 1207.18 1074.08 1212.96 1069.75C1218.65 1063.95 1222.25 1056.42 1223.19 1048.35C1223.19 1044.55 1226.08 1036.81 1232.64 1042.84C1239.2 1048.88 1241.7 1049.93 1254.03 1050.32C1262.8 1048.9 1270.77 1044.36 1276.46 1037.54C1282.15 1030.71 1285.18 1022.07 1285 1013.18C1281.2 992.447 1268.21 991.528 1257.45 986.935C1254.03 985.36 1254.82 979.323 1260.86 977.748C1265.53 976.68 1269.95 974.691 1273.85 971.897C1277.75 969.103 1281.05 965.56 1283.56 961.475C1284.34 957.877 1284.29 954.149 1283.41 950.574C1282.54 946.998 1280.86 943.668 1278.51 940.836C1276.16 938.005 1273.19 935.744 1269.84 934.227C1266.49 932.709 1262.83 931.974 1259.15 932.077C1245.32 932.818 1232.11 938.022 1221.49 946.907C1217.29 950.057 1208.36 950.582 1214.27 942.314C1220.18 934.046 1236.19 919.216 1215.58 905.961C1194.98 892.706 1169.13 913.179 1159.94 925.778C1158.46 926.846 1156.75 927.564 1154.95 927.878C1142.86 919.364 1131.37 910.024 1120.57 899.924L1156.79 886.8C1171.49 881.419 1190.25 875.12 1205.35 870.001C1277.13 845.853 1353.77 820 1406.66 775.378C1403.5 919.21 1352.32 1057.85 1261.25 1169.22ZM1231.59 660.414C1223.32 652.671 1210.46 632.46 1221.49 619.73C1232.51 607 1241.83 619.73 1247.73 624.717C1253.64 629.704 1253.51 623.536 1251.54 620.255C1246.05 612.091 1243.29 602.395 1243.67 592.563C1244.01 589.974 1244.95 587.501 1246.42 585.34C1247.89 583.18 1249.84 581.391 1252.12 580.117C1254.4 578.843 1256.95 578.118 1259.56 578.001C1262.17 577.883 1264.77 578.376 1267.16 579.44C1272.62 583.763 1276.23 590.004 1277.26 596.894C1277.26 601.356 1282.12 602.406 1283.43 600.306C1284.74 598.207 1287.37 593.22 1289.07 589.807C1290.96 585.207 1294.24 581.314 1298.45 578.678C1302.67 576.041 1307.6 574.792 1312.56 575.109C1318.93 575.873 1324.83 578.811 1329.28 583.426C1333.73 588.041 1336.44 594.05 1336.97 600.438C1334.2 609.601 1328.71 617.703 1321.22 623.667C1316.37 627.473 1321.22 630.491 1324.5 630.754C1330.24 632.286 1335.34 635.593 1339.07 640.203C1341.83 644.534 1338.02 655.689 1325.95 659.232C1314.52 660.298 1303.03 658.163 1292.75 653.064C1287.23 651.489 1287.1 657.001 1291.57 659.232C1297.08 662.388 1302.27 666.08 1307.05 670.256C1311.25 674.062 1314.27 684.561 1301.54 693.092C1291.7 699.654 1275.29 692.173 1263.61 684.43C1261.24 682.365 1259.6 679.586 1258.94 676.511C1258.28 673.436 1258.63 670.229 1259.94 667.369C1268.85 651.395 1278.57 635.889 1289.07 620.911C1274.38 632.025 1261.46 645.299 1250.75 660.282C1246.95 665.794 1239.99 668.157 1231.59 660.414ZM899.574 834.829C891.438 850.053 878.315 867.245 862.567 865.67C842.095 863.571 838.158 850.447 840.257 844.016C842.685 836.73 845.99 829.767 850.1 823.28C853.512 818.425 850.1 812.388 844.325 817.375C838.551 822.362 827.003 840.21 810.861 842.704C794.72 845.197 782.777 835.617 782.777 829.58C783.84 822.466 787.314 815.932 792.62 811.075C795.77 809.369 799.575 802.939 791.439 801.495C778.767 799.327 766.925 793.746 757.187 785.353C753.252 778.471 752.092 770.346 753.946 762.638C755.8 754.93 760.527 748.221 767.161 743.881C772.993 740.562 779.671 739.028 786.367 739.471C793.063 739.915 799.481 742.315 804.825 746.375C809.286 749.131 815.717 753.068 818.735 754.643C821.753 756.218 825.822 752.412 823.46 747.425C821.545 743.501 820.474 739.22 820.316 734.858C820.158 730.495 820.916 726.147 822.541 722.096C824.821 719.536 827.635 717.507 830.783 716.15C833.931 714.794 837.338 714.143 840.764 714.243C844.191 714.343 847.554 715.191 850.618 716.73C853.681 718.268 856.371 720.457 858.499 723.146C865.77 733.098 869.469 745.213 868.997 757.53C868.997 762.255 873.853 769.079 876.477 760.286C879.102 751.493 881.071 732.595 902.724 740.207C924.377 747.818 923.721 776.953 919.653 790.077C915.585 803.201 943.8 827.48 935.27 822.624C909.023 807.926 849.968 782.203 826.215 779.972C848.645 790.144 870.545 801.445 891.832 813.831C895.323 815.924 897.995 819.147 899.403 822.966C900.811 826.785 900.872 830.971 899.574 834.829ZM438.817 521.038C448.252 521.137 457.424 524.163 465.064 529.7C469.919 533.244 471.494 527.338 470.838 524.713C470.794 518.906 472.535 513.225 475.825 508.44C479.237 504.634 490.654 505.29 497.216 515.526C501.323 525.951 502.414 537.321 500.365 548.336C500.365 553.979 505.615 552.536 506.533 548.336C507.715 542.161 509.563 536.132 512.045 530.356C514.407 525.369 523.462 519.726 535.011 529.306C543.672 536.787 541.047 553.848 536.979 567.234C535.677 570.029 533.498 572.322 530.775 573.767C528.052 575.211 524.931 575.728 521.887 575.24C504.524 571.243 487.394 566.293 470.576 560.41C484.887 571.18 500.72 579.76 517.557 585.87C524.25 588.495 528.187 594.138 523.069 604.112C517.95 614.086 502.596 631.41 487.767 624.586C472.938 617.761 481.993 605.425 485.405 598.338C488.817 591.251 482.78 593.22 480.156 595.976C474.023 603.353 465.705 608.592 456.402 610.937C453.881 611.308 451.308 611.087 448.886 610.29C446.465 609.493 444.263 608.144 442.455 606.348C440.646 604.552 439.281 602.359 438.467 599.944C437.654 597.528 437.414 594.956 437.767 592.432C440.181 586.211 444.874 581.143 450.891 578.258C454.828 576.421 454.696 572.09 452.465 571.434C450.235 570.778 444.723 569.728 441.048 568.94C436.404 568.355 432.048 566.373 428.556 563.255C425.064 560.138 422.601 556.034 421.495 551.486C420.379 545.187 421.499 538.696 424.663 533.136C427.826 527.576 432.833 523.297 438.817 521.038ZM1063.22 388.225C1054.95 374.183 1047.47 355.416 1055.35 344.654C1065.85 330.611 1077.66 334.68 1081.59 339.798C1086.09 345.422 1090.01 351.49 1093.27 357.909C1095.5 363.027 1101.8 363.29 1100.23 356.859C1098.65 350.429 1090.65 332.055 1095.24 318.8C1099.84 305.545 1112.7 301.739 1117.55 305.676C1122.56 310.192 1126.05 316.154 1127.53 322.737C1127.53 325.887 1130.81 332.186 1135.4 326.937C1142.55 318.746 1152.02 312.931 1162.56 310.27C1169.82 311.244 1176.52 314.684 1181.54 320.013C1186.55 325.342 1189.59 332.235 1190.12 339.536C1190.28 345.266 1188.6 350.896 1185.35 355.614C1182.09 360.332 1177.42 363.893 1172.01 365.783C1167.94 367.489 1162.17 370.246 1159.68 371.558C1157.18 372.87 1158.23 377.857 1163.22 378.907C1171.12 380.6 1178.04 385.309 1182.51 392.031C1183.66 394.819 1184.13 397.841 1183.89 400.847C1183.64 403.854 1182.69 406.758 1181.1 409.322C1179.51 411.886 1177.33 414.035 1174.75 415.592C1172.16 417.149 1169.25 418.07 1166.24 418.279C1155.03 417.95 1144.22 414.04 1135.4 407.123C1131.86 404.63 1124.51 404.63 1130.15 411.192C1135.79 417.754 1149.31 429.172 1134.35 440.852C1119.39 452.532 1096.95 436.915 1088.68 427.072C1080.41 417.229 1083.3 409.617 1090.12 404.892C1107.62 393.505 1123.32 379.572 1136.71 363.552C1119.15 374.648 1101.01 384.811 1082.38 394C1079 395.309 1075.28 395.452 1071.81 394.406C1068.34 393.36 1065.32 391.184 1063.22 388.225ZM1051.15 1060.69C1044.98 1083.13 1027 1073.81 1017.68 1070.27C1008.37 1066.73 1011.52 1075.39 1015.58 1078.15C1026.59 1085.09 1035.06 1095.4 1039.73 1107.54C1040.79 1110.95 1041.06 1114.55 1040.53 1118.08C1040.01 1121.61 1038.69 1124.97 1036.69 1127.92C1034.68 1130.87 1032.04 1133.33 1028.95 1135.12C1025.87 1136.91 1022.42 1137.98 1018.86 1138.25C1014.47 1137.21 1010.33 1135.31 1006.68 1132.65C1003.03 1129.99 999.942 1126.63 997.605 1122.77C994.587 1117.65 988.812 1118.83 988.419 1122.77C988.025 1126.7 987.5 1133.79 987.369 1139.17C987.841 1146.89 985.603 1154.54 981.04 1160.79C976.477 1167.03 969.875 1171.49 962.376 1173.39C954.876 1175.29 946.949 1174.51 939.964 1171.18C932.978 1167.86 927.373 1162.2 924.115 1155.18C922.492 1142.11 924.68 1128.85 930.414 1116.99C934.088 1109.25 926.083 1108.72 922.671 1110.17C915.12 1111.69 907.276 1110.68 900.362 1107.28C894.719 1103.47 893.275 1087.46 905.611 1075.78C917.947 1064.1 940.781 1064.5 948.262 1062.66C955.742 1060.82 952.855 1054.39 946.293 1054.39C938.113 1053.89 930.014 1052.48 922.146 1050.19C915.06 1048.22 905.873 1037.07 916.503 1018.56C924.377 1005.44 946.687 1003.86 964.928 1006.1C969.53 1007.93 973.405 1011.22 975.964 1015.46C978.523 1019.7 979.625 1024.66 979.101 1029.59C977.188 1053.35 974.078 1077 969.784 1100.46C980.81 1078.91 988.803 1055.95 993.537 1032.21C996.293 1020.4 1003.25 1011.87 1017.29 1016.33C1031.33 1020.79 1057.32 1038.25 1051.15 1060.69Z" fill="url(#paint0_linear_338_2733)"/>
</g>

<defs>
<filter id="filter0_b_338_2733" x="22" y="22" width="1477" height="1477" filterUnits="userSpaceOnUse" color-interpolation-filters="sRGB">
<feFlood flood-opacity="0" result="BackgroundImageFix"/>
<feGaussianBlur in="BackgroundImageFix" stdDeviation="9"/>
<feComposite in2="SourceAlpha" operator="in" result="effect1_backgroundBlur_338_2733"/>
<feBlend mode="normal" in="SourceGraphic" in2="effect1_backgroundBlur_338_2733" result="shape"/>
</filter>
<linearGradient id="paint0_linear_338_2733" x1="121.353" y1="1399.65" x2="1399.65" y2="121.353" gradientUnits="userSpaceOnUse">
<stop stop-color="white" stop-opacity="0.2"/>
<stop offset="1" stop-color="white" stop-opacity="0.49"/>
</linearGradient>
</defs>
</svg>
