<svg width="121" height="14" viewBox="0 0 121 14" fill="none" xmlns="http://www.w3.org/2000/svg">
<path d="M55.2453 3.2334L52.6275 10.433L50.0098 3.2334H47.3047L51.2168 13.9933H54.0383L57.9526 3.2334H55.2453Z"></path>
<path d="M1.60953 4.77116C1.08583 5.25789 0.671453 5.85169 0.394164 6.51276C0.116874 7.17384 -0.0169237 7.88694 0.00171052 8.60431C-0.0154106 9.32648 0.118933 10.0442 0.395981 10.7105C0.67303 11.3768 1.08655 11.9768 1.60953 12.4713C2.68216 13.4769 4.2116 13.9865 6.15308 13.9865H7.48099V11.4657H6.15308C3.90034 11.4657 2.6105 10.4262 2.6105 8.61334C2.6105 6.80048 3.90034 5.76102 6.15308 5.76102H7.48099V3.2334H6.15308C4.20041 3.2334 2.67096 3.75199 1.60953 4.77116Z"></path>
<path d="M31.2984 3.22852C29.8813 3.23031 28.5227 3.79793 27.5207 4.8069C26.5186 5.81587 25.9549 7.18381 25.9531 8.61071C25.9543 10.038 26.5178 11.4065 27.5199 12.416C28.522 13.4254 29.8809 13.9934 31.2984 13.9952H36.6302V8.30856C36.5535 6.93646 35.9586 5.64584 34.9672 4.70129C33.9758 3.75673 32.6632 3.2298 31.2984 3.22852ZM34.2095 8.61071V11.5419H31.2984C30.5263 11.5419 29.7858 11.2331 29.2399 10.6834C28.694 10.1337 28.3873 9.38812 28.3873 8.61071C28.3873 7.8333 28.694 7.08773 29.2399 6.53802C29.7858 5.9883 30.5263 5.67948 31.2984 5.67948C32.0704 5.67948 32.8109 5.9883 33.3568 6.53802C33.9028 7.08773 34.2095 7.8333 34.2095 8.61071Z"></path>
<path d="M118.68 10.1719C118.177 10.1719 117.694 10.3733 117.337 10.7319C116.981 11.0905 116.781 11.5768 116.781 12.084C116.781 12.5911 116.981 13.0774 117.337 13.436C117.694 13.7946 118.177 13.996 118.68 13.996H120.575V11.9667C120.546 11.4808 120.333 11.0244 119.981 10.6908C119.629 10.3572 119.164 10.1716 118.68 10.1719Z"></path>
<path d="M11.7313 3.86423L11.5947 4.04235L11.1827 3.21484H8.94336V13.995H11.4872V6.76389C11.4658 6.48748 11.5517 6.21347 11.7268 5.99951C11.8903 5.82815 12.1747 5.74472 12.571 5.74472H14.0467V3.21484H13.2182C12.5419 3.22837 12.0582 3.44032 11.7313 3.86423Z"></path>
<path d="M42.6674 5.73395V3.20857H40.6206V0H38.0566V10.9493C38.0578 11.755 38.3762 12.5275 38.9421 13.0972C39.5079 13.667 40.275 13.9876 41.0752 13.9888H42.6674V11.4341H41.5298C41.2885 11.4335 41.0572 11.3365 40.8868 11.1645C40.7164 10.9925 40.6206 10.7594 40.6206 10.5164V5.73395H42.6674Z"></path>
<path d="M46.6083 3.25195H44.0801V13.9938H46.6083V3.25195Z"></path>
<path d="M114.002 4.45485C113.161 3.65956 112.048 3.22179 110.894 3.23275C109.737 3.21865 108.619 3.65761 107.777 4.4571L107.736 4.49769L107.694 4.45485C106.854 3.65835 105.74 3.22038 104.586 3.23275C103.941 3.2297 103.302 3.36577 102.714 3.63184V3.25078H100.186V13.9949H102.714V8.05125C102.741 6.5225 103.399 5.6792 104.586 5.6792C105.773 5.6792 106.48 6.56985 106.487 8.12115V13.9949H109.011V8.11664C109.011 6.53828 109.682 5.67694 110.887 5.67694C112.092 5.67694 112.788 6.57887 112.788 8.13693V13.9994H115.312V8.13693C115.319 6.50221 114.875 5.26206 114.002 4.45485Z"></path>
<path d="M76.0753 5.73395V3.20857H74.0286V0H71.4668V10.9493C71.4674 11.7548 71.7853 12.5272 72.3508 13.0971C72.9163 13.6669 73.6831 13.9876 74.4832 13.9888H76.0753V11.4341H74.94C74.6984 11.4335 74.467 11.3366 74.2962 11.1646C74.1254 10.9927 74.0292 10.7596 74.0286 10.5164V5.73395H76.0753Z"></path>
<path d="M64.8967 10.9223C64.4502 11.2768 63.9094 11.4902 63.3426 11.5356H63.103C62.5892 11.5338 62.085 11.396 61.6408 11.136C61.1967 10.876 60.8283 10.5029 60.5726 10.0542H68.2489L68.2735 9.95722C68.3793 9.54002 68.4349 9.11155 68.4393 8.68101V8.61336V8.04515L68.4213 8.06094C68.3508 7.37885 68.1508 6.71674 67.8324 6.11053L67.8212 6.08799C67.8055 6.05642 67.7876 6.02486 67.7697 5.99555L67.7384 5.94142C67.7221 5.9089 67.7042 5.8773 67.6846 5.84672L67.6533 5.79487C67.1792 5.0105 66.5121 4.3626 65.7165 3.91386C64.921 3.46513 64.0238 3.23077 63.1119 3.23342C62.9955 3.23342 62.8746 3.23341 62.7313 3.24919C61.3988 3.35326 60.1526 3.95352 59.2359 4.93282C58.3192 5.91212 57.7978 7.20021 57.7734 8.54572V8.60885V9.18156L57.7936 9.16579C57.8631 9.84952 58.0631 10.5133 58.3825 11.1207V11.1387L58.4363 11.2334L58.4676 11.2898C58.4833 11.3214 58.5012 11.3507 58.5191 11.38L58.5505 11.4341C59.0252 12.2184 59.6928 12.8661 60.4887 13.3148C61.2846 13.7635 62.1819 13.998 63.094 13.9956C63.2082 13.9956 63.3292 13.9956 63.4747 13.9798C64.6446 13.889 65.7524 13.4137 66.6277 12.6269L64.9079 10.8952L64.8967 10.9223ZM62.8611 5.69114H63.103C63.6965 5.6886 64.2765 5.8701 64.7641 6.21097C65.2516 6.55184 65.6232 7.03557 65.8282 7.59645H60.3733C60.5651 7.07353 60.9011 6.61653 61.3417 6.27906C61.7824 5.94159 62.3095 5.73765 62.8611 5.69114Z"></path>
<path d="M21.4988 10.9223C21.0523 11.2768 20.5115 11.4902 19.9447 11.5356H19.7051C19.1913 11.5338 18.6871 11.396 18.2429 11.136C17.7988 10.876 17.4304 10.5029 17.1747 10.0542H24.851L24.8756 9.95722C24.9814 9.54002 25.037 9.11155 25.0413 8.68101V8.61336V8.04515L25.0234 8.06094C24.9528 7.37885 24.7529 6.71674 24.4345 6.11053V6.08799C24.4188 6.05642 24.4009 6.02486 24.383 5.99555L24.3539 5.94142C24.336 5.90985 24.318 5.87829 24.2979 5.84672L24.2665 5.79487C23.7925 5.0105 23.1254 4.3626 22.3298 3.91386C21.5342 3.46513 20.6371 3.23077 19.7252 3.23342C19.6088 3.23342 19.4879 3.23341 19.3445 3.24919C18.0121 3.35326 16.7659 3.95352 15.8492 4.93282C14.9325 5.91212 14.4111 7.20021 14.3867 8.54572V8.60885V9.18156L14.4069 9.16579C14.4764 9.84952 14.6764 10.5133 14.9958 11.1207V11.1387L15.0495 11.2334L15.0809 11.2898C15.0966 11.3214 15.1145 11.3507 15.1324 11.38L15.1638 11.4341C15.6385 12.2184 16.306 12.8661 17.1019 13.3148C17.8978 13.7635 18.7952 13.998 19.7073 13.9956C19.8215 13.9956 19.9312 13.9956 20.088 13.9798C21.2578 13.889 22.3656 13.4137 23.2409 12.6269L21.5211 10.8952L21.4988 10.9223ZM19.4632 5.69114H19.7051C20.2986 5.6886 20.8786 5.8701 21.3661 6.21097C21.8537 6.55184 22.2253 7.03557 22.4303 7.59645H16.9754C17.1686 7.07443 17.5049 6.61831 17.9453 6.28106C18.3857 5.9438 18.912 5.73924 19.4632 5.69114Z"></path>
<path d="M93.4098 3.22852C91.9939 3.23209 90.637 3.8005 89.6365 4.80928C88.6359 5.81806 88.0731 7.18498 88.0713 8.61071C88.0725 10.038 88.6359 11.4065 89.638 12.416C90.6402 13.4254 91.999 13.9934 93.4165 13.9952H98.7483V8.30856C98.6716 6.93529 98.0757 5.64369 97.0829 4.69896C96.0901 3.75423 94.7758 3.22808 93.4098 3.22852ZM96.3209 8.61071V11.5419H93.4098C92.6377 11.5419 91.8973 11.2331 91.3513 10.6834C90.8054 10.1337 90.4987 9.38812 90.4987 8.61071C90.4987 7.8333 90.8054 7.08773 91.3513 6.53802C91.8973 5.9883 92.6377 5.67948 93.4098 5.67948C93.7923 5.67918 94.1711 5.75478 94.5245 5.90196C94.878 6.04913 95.1992 6.265 95.4697 6.53722C95.7403 6.80944 95.9549 7.13268 96.1013 7.48846C96.2478 7.84424 96.3231 8.22559 96.3231 8.61071H96.3209Z"></path>
<path d="M83.6101 10.9223C83.1644 11.2768 82.6244 11.4902 82.0582 11.5356H81.8164C81.3029 11.5341 80.7988 11.3964 80.355 11.1363C79.9112 10.8762 79.5432 10.503 79.2882 10.0542H86.9623L86.987 9.95721C87.0927 9.54001 87.1483 9.11155 87.1527 8.681V8.61336V8.04514L87.1325 8.06093C87.063 7.37863 86.863 6.71632 86.5436 6.11052V6.08798C86.5279 6.05642 86.51 6.02485 86.4921 5.99554L86.463 5.94142L86.4092 5.84672L86.3779 5.79486C85.9031 5.01061 85.2356 4.36286 84.4397 3.91418C83.6438 3.46549 82.7465 3.23103 81.8343 3.23342C81.7201 3.23342 81.5992 3.2334 81.4536 3.24919C80.1204 3.3508 78.8731 3.95038 77.9563 4.93027C77.0394 5.91015 76.5194 7.19963 76.498 8.54572V8.60884V9.18156L76.5182 9.16578C76.5877 9.84951 76.7877 10.5133 77.1071 11.1207L77.1183 11.1387C77.1337 11.1713 77.1509 11.2029 77.1698 11.2334L77.2012 11.2898L77.2527 11.38L77.2863 11.4341C77.7603 12.2185 78.4274 12.8664 79.223 13.3151C80.0186 13.7638 80.9157 13.9982 81.8276 13.9956C81.944 13.9956 82.065 13.9956 82.2083 13.9798C83.3782 13.8895 84.4862 13.4141 85.3612 12.6269L83.6414 10.8952L83.6101 10.9223ZM81.5746 5.69114H81.8164C82.41 5.68827 82.9901 5.86965 83.4778 6.21056C83.9654 6.55148 84.3369 7.03538 84.5416 7.59644H79.0867C79.2801 7.0741 79.6167 6.61776 80.0576 6.28047C80.4984 5.94319 81.0252 5.73883 81.5768 5.69114H81.5746Z"></path>
</svg>