<svg width="48" height="48" viewBox="0 0 48 48" fill="none" xmlns="http://www.w3.org/2000/svg">
<path d="M26.9255 26.13C26.1693 26.6056 25.1288 26.7942 24.4416 26.8653L25.0184 27.4284L27.1242 29.5141C27.8943 30.2959 26.6413 31.5177 25.8629 30.7633C25.3358 30.233 24.563 29.4676 23.7571 28.6694L21.6512 30.7606C20.8729 31.5123 19.6199 30.2795 20.3982 29.5113C20.9336 28.981 21.6981 28.2156 22.5041 27.4257L23.0726 26.8626C22.3937 26.7915 21.3366 26.6138 20.5721 26.1272C19.6723 25.5532 19.2776 25.217 19.6254 24.5145C19.8296 24.1154 20.3899 23.7791 21.1323 24.3586C21.1323 24.3586 22.1342 25.1486 23.7516 25.1486C25.3689 25.1486 26.3708 24.3586 26.3708 24.3586C27.1132 23.7819 27.6707 24.1154 27.8777 24.5145C28.22 25.217 27.8253 25.5532 26.9255 26.13ZM20.1691 20.5454C20.1691 18.5854 21.7782 17 23.7488 17C25.7194 17 27.3285 18.5854 27.3285 20.5454C27.3285 22.4971 25.7194 24.0826 23.7488 24.0826C21.7782 24.0826 20.1691 22.4971 20.1691 20.5454ZM21.9907 20.5454C21.9907 21.5048 22.7801 22.2866 23.7488 22.2866C24.7176 22.2866 25.5069 21.5048 25.5069 20.5454C25.5069 19.5777 24.7176 18.7959 23.7488 18.7959C22.7801 18.7959 21.9907 19.5777 21.9907 20.5454Z" fill="#424242"/>
</svg>
