<svg width="48" height="48" viewBox="0 0 48 48" fill="none" xmlns="http://www.w3.org/2000/svg">
<path fill-rule="evenodd" clip-rule="evenodd" d="M24.5096 28.4953C25.0089 28.4953 25.0089 27.7752 25.0089 27.4959C25.0089 26.9961 25.5082 26.4964 26.0075 26.4964C26.5068 26.4964 27.3632 27.3534 28.0048 27.9956C28.5041 28.4953 28.5041 28.4953 29.0034 28.4953C29.5027 28.4953 30.5014 28.4953 30.5014 28.4953C30.5014 28.4953 31.5 28.4574 31.5 27.4959C31.5 27.1835 31.158 26.6538 30.0021 25.4969C29.0034 24.4974 28.4911 25.0136 30.0021 22.9982C30.9223 21.7708 31.5919 20.6589 31.477 20.3381C31.3672 20.0317 28.8077 19.544 28.5041 19.9997C27.5055 21.499 27.3222 21.8663 27.0062 22.4984C26.5068 23.4979 26.4574 23.9977 26.0075 23.9977C25.5537 23.9977 25.5082 23.0277 25.5082 22.4984C25.5082 20.8463 25.7474 19.6779 25.0089 19.5C25.0089 19.5 24.0103 19.5 23.511 19.5C22.7071 19.5 22.013 19.9997 22.013 19.9997C22.013 19.9997 21.3934 20.4835 21.5137 20.4995C21.6625 20.5195 22.5123 20.2926 22.5123 20.9992C22.5123 21.499 22.5123 21.9987 22.5123 21.9987C22.5123 21.9987 22.5168 23.9977 22.013 23.9977C21.5137 23.9977 20.5151 21.9987 19.5164 20.4995C19.1245 19.9113 19.0171 19.9997 18.5178 19.9997C17.9825 19.9997 17.5197 20.0207 17.0199 20.0207C16.5205 20.0207 16.4566 20.3391 16.5205 20.4995C17.5192 22.9982 18.2367 24.5674 20.1341 26.5443C21.8742 28.3579 23.0366 28.4544 24.0103 28.4953C24.2599 28.5058 24.0103 28.4953 24.5096 28.4953Z" fill="#424242"/>
</svg>
